<svg width="36" height="36" viewBox="0 0 36 36" fill="none" xmlns="http://www.w3.org/2000/svg">
<g id="icon-my-page">
<g id="Group">
<path id="Vector" d="M6.5 27C6.5 25.4087 7.13214 23.8826 8.25736 22.7574C9.38258 21.6321 10.9087 21 12.5 21H24.5C26.0913 21 27.6174 21.6321 28.7426 22.7574C29.8679 23.8826 30.5 25.4087 30.5 27C30.5 27.7956 30.1839 28.5587 29.6213 29.1213C29.0587 29.6839 28.2956 30 27.5 30H9.5C8.70435 30 7.94129 29.6839 7.37868 29.1213C6.81607 28.5587 6.5 27.7956 6.5 27Z" stroke="#D5D5D5" stroke-width="3" stroke-linejoin="round"/>
<path id="Vector_2" d="M18.5 15C20.9853 15 23 12.9853 23 10.5C23 8.01472 20.9853 6 18.5 6C16.0147 6 14 8.01472 14 10.5C14 12.9853 16.0147 15 18.5 15Z" stroke="#D5D5D5" stroke-width="3"/>
</g>
</g>
</svg>
