<svg width="18" height="13" viewBox="0 0 18 13" fill="none" xmlns="http://www.w3.org/2000/svg">
<path id="Vector" fill-rule="evenodd" clip-rule="evenodd" d="M17.6045 0.400481C17.8577 0.656694 18 1.00415 18 1.36643C18 1.72872 17.8577 2.07617 17.6045 2.33239L7.48031 12.573C7.34652 12.7084 7.18767 12.8158 7.01285 12.889C6.83802 12.9623 6.65064 13 6.46141 13C6.27217 13 6.08479 12.9623 5.90997 12.889C5.73514 12.8158 5.5763 12.7084 5.4425 12.573L0.412364 7.48596C0.283355 7.35992 0.180453 7.20916 0.109662 7.04247C0.0388713 6.87578 0.0016095 6.6965 5.09992e-05 6.51509C-0.0015075 6.33367 0.0326685 6.15376 0.100585 5.98585C0.168501 5.81794 0.268797 5.6654 0.395621 5.53711C0.522445 5.40883 0.673258 5.30738 0.839258 5.23869C1.00526 5.16999 1.18312 5.13542 1.36247 5.13699C1.54182 5.13857 1.71907 5.17626 1.88386 5.24787C2.04866 5.31947 2.1977 5.42356 2.3223 5.55405L6.46096 9.7403L15.6937 0.400481C15.8191 0.273518 15.9681 0.172801 16.132 0.104085C16.2959 0.0353685 16.4716 0 16.6491 0C16.8266 0 17.0023 0.0353685 17.1662 0.104085C17.3301 0.172801 17.4791 0.273518 17.6045 0.400481Z" fill="#A9B5FF"/>
</svg>
