<svg width="36" height="36" viewBox="0 0 36 36" fill="none" xmlns="http://www.w3.org/2000/svg">
<g id="icon-discover">
<g id="Group">
<path id="Vector" d="M18.5 31C25.9558 31 32 24.9558 32 17.5C32 10.0442 25.9558 4 18.5 4C11.0442 4 5 10.0442 5 17.5C5 24.9558 11.0442 31 18.5 31Z" stroke="#7B87DB" stroke-width="3" stroke-linecap="round" stroke-linejoin="round"/>
<path id="Vector_2" d="M17.4605 14.1085L23 13L21.8915 18.5395C21.7755 19.1201 21.4902 19.6534 21.0717 20.0722C20.6531 20.491 20.12 20.7766 19.5395 20.893L14 22L15.1085 16.4605C15.2248 15.8802 15.5102 15.3472 15.9287 14.9287C16.3472 14.5102 16.8802 14.2248 17.4605 14.1085Z" stroke="#7B87DB" stroke-width="3" stroke-linecap="round" stroke-linejoin="round"/>
</g>
</g>
</svg>
