<svg width="36" height="36" viewBox="0 0 36 36" fill="none" xmlns="http://www.w3.org/2000/svg">
<g id="icon-home">
<path id="Vector" d="M30.0184 14.9998C30.0184 14.602 29.8604 14.2204 29.5791 13.9391C29.2978 13.6578 28.9163 13.4998 28.5184 13.4998C28.1206 13.4998 27.7391 13.6578 27.4578 13.9391C27.1765 14.2204 27.0184 14.602 27.0184 14.9998H30.0184ZM9.01843 14.9998C9.01843 14.602 8.8604 14.2204 8.57909 13.9391C8.29779 13.6578 7.91626 13.4998 7.51843 13.4998C7.12061 13.4998 6.73908 13.6578 6.45777 13.9391C6.17647 14.2204 6.01843 14.602 6.01843 14.9998H9.01843ZM30.4579 19.0603C30.7408 19.3335 31.1197 19.4847 31.513 19.4813C31.9063 19.4779 32.2825 19.3201 32.5607 19.042C32.8388 18.7639 32.9965 18.3877 32.9999 17.9944C33.0034 17.6011 32.8522 17.2222 32.5789 16.9393L30.4579 19.0603ZM18.0184 4.4998L19.0789 3.4393C18.7976 3.1581 18.4162 3.00012 18.0184 3.00012C17.6207 3.00012 17.2392 3.1581 16.9579 3.4393L18.0184 4.4998ZM3.45793 16.9393C3.31467 17.0777 3.20039 17.2432 3.12178 17.4262C3.04317 17.6092 3.00179 17.806 3.00006 18.0052C2.99833 18.2044 3.03628 18.4019 3.1117 18.5862C3.18712 18.7706 3.2985 18.9381 3.43934 19.0789C3.58018 19.2197 3.74766 19.3311 3.932 19.4065C4.11635 19.482 4.31387 19.5199 4.51303 19.5182C4.7122 19.5164 4.90903 19.4751 5.09204 19.3965C5.27505 19.3178 5.44056 19.2036 5.57893 19.0603L3.45793 16.9393ZM10.5184 32.9998H25.5184V29.9998H10.5184V32.9998ZM30.0184 28.4998V14.9998H27.0184V28.4998H30.0184ZM9.01843 28.4998V14.9998H6.01843V28.4998H9.01843ZM32.5789 16.9393L19.0789 3.4393L16.9579 5.5603L30.4579 19.0603L32.5789 16.9393ZM16.9579 3.4393L3.45793 16.9393L5.57893 19.0603L19.0789 5.5603L16.9579 3.4393ZM25.5184 32.9998C26.7119 32.9998 27.8565 32.5257 28.7004 31.6818C29.5443 30.8379 30.0184 29.6933 30.0184 28.4998H27.0184C27.0184 28.8976 26.8604 29.2792 26.5791 29.5605C26.2978 29.8418 25.9163 29.9998 25.5184 29.9998V32.9998ZM10.5184 29.9998C10.1206 29.9998 9.73908 29.8418 9.45777 29.5605C9.17647 29.2792 9.01843 28.8976 9.01843 28.4998H6.01843C6.01843 29.6933 6.49254 30.8379 7.33645 31.6818C8.18037 32.5257 9.32496 32.9998 10.5184 32.9998V29.9998Z" fill="#D5D5D5"/>
</g>
</svg>
