<svg width="148" height="44" viewBox="0 0 148 44" fill="none" xmlns="http://www.w3.org/2000/svg">
<mask id="path-1-inside-1_2203_1866" fill="white">
<path fill-rule="evenodd" clip-rule="evenodd" d="M133 26H118V32V36V40.0836C118 42.2465 119.754 44 121.917 44H142C145.314 44 148 41.3137 148 38C148 34.6863 145.314 32 142 32H133V26Z"/>
</mask>
<path fill-rule="evenodd" clip-rule="evenodd" d="M133 26H118V32V36V40.0836C118 42.2465 119.754 44 121.917 44H142C145.314 44 148 41.3137 148 38C148 34.6863 145.314 32 142 32H133V26Z" fill="#BEC8FF"/>
<path d="M118 26V23.2H115.2V26H118ZM133 26H135.8V23.2H133V26ZM133 32H130.2V34.8H133V32ZM118 28.8H133V23.2H118V28.8ZM120.8 32V26H115.2V32H120.8ZM120.8 36V32H115.2V36H120.8ZM120.8 40.0836V36H115.2V40.0836H120.8ZM121.917 41.2C121.3 41.2 120.8 40.7001 120.8 40.0836H115.2C115.2 43.7929 118.207 46.8 121.917 46.8V41.2ZM142 41.2H121.917V46.8H142V41.2ZM145.2 38C145.2 39.7673 143.768 41.2 142 41.2V46.8C146.86 46.8 150.8 42.8601 150.8 38H145.2ZM142 34.8C143.768 34.8 145.2 36.2327 145.2 38H150.8C150.8 33.1399 146.86 29.2 142 29.2V34.8ZM133 34.8H142V29.2H133V34.8ZM130.2 26V32H135.8V26H130.2Z" fill="#7B87DB" mask="url(#path-1-inside-1_2203_1866)"/>
<rect x="119.4" y="21.4" width="12.2" height="6.2" fill="white" stroke="#7B87DB" stroke-width="2.8"/>
<mask id="path-4-inside-2_2203_1866" fill="white">
<path fill-rule="evenodd" clip-rule="evenodd" d="M123.148 9.67794L108.659 5.79565L107.106 11.5912L106.071 15.4549L105.014 19.3993C104.454 21.4886 105.694 23.6361 107.783 24.196L127.182 29.394C130.383 30.2516 133.673 28.3521 134.531 25.1513C135.388 21.9505 133.489 18.6605 130.288 17.8029L121.595 15.4735L123.148 9.67794Z"/>
</mask>
<path fill-rule="evenodd" clip-rule="evenodd" d="M123.148 9.67794L108.659 5.79565L107.106 11.5912L106.071 15.4549L105.014 19.3993C104.454 21.4886 105.694 23.6361 107.783 24.196L127.182 29.394C130.383 30.2516 133.673 28.3521 134.531 25.1513C135.388 21.9505 133.489 18.6605 130.288 17.8029L121.595 15.4735L123.148 9.67794Z" fill="#BEC8FF"/>
<path d="M108.659 5.79565L109.384 3.09106L106.679 2.36637L105.954 5.07096L108.659 5.79565ZM123.148 9.67794L125.852 10.4026L126.577 7.69804L123.872 6.97335L123.148 9.67794ZM107.783 24.196L107.058 26.9006L107.783 24.196ZM127.182 29.394L127.907 26.6894L127.182 29.394ZM121.595 15.4735L118.89 14.7488L118.166 17.4534L120.87 18.1781L121.595 15.4735ZM107.934 8.50025L122.423 12.3825L123.872 6.97335L109.384 3.09106L107.934 8.50025ZM109.81 12.3159L111.363 6.52035L105.954 5.07096L104.401 10.8665L109.81 12.3159ZM108.775 16.1796L109.81 12.3159L104.401 10.8665L103.366 14.7302L108.775 16.1796ZM107.718 20.124L108.775 16.1796L103.366 14.7302L102.309 18.6746L107.718 20.124ZM108.508 21.4914C107.912 21.3318 107.559 20.7196 107.718 20.124L102.309 18.6746C101.349 22.2576 103.475 25.9405 107.058 26.9006L108.508 21.4914ZM127.907 26.6894L108.508 21.4914L107.058 26.9006L126.458 32.0986L127.907 26.6894ZM131.826 24.4266C131.369 26.1337 129.614 27.1468 127.907 26.6894L126.458 32.0986C131.152 33.3565 135.977 30.5705 137.235 25.876L131.826 24.4266ZM129.563 20.5075C131.271 20.9649 132.284 22.7196 131.826 24.4266L137.235 25.876C138.493 21.1815 135.707 16.3562 131.013 15.0983L129.563 20.5075ZM120.87 18.1781L129.563 20.5075L131.013 15.0983L122.319 12.7689L120.87 18.1781ZM120.443 8.95325L118.89 14.7488L124.299 16.1982L125.852 10.4026L120.443 8.95325Z" fill="#7B87DB" mask="url(#path-4-inside-2_2203_1866)"/>
<rect x="111.202" y="1.71464" width="12.2" height="6.2" transform="rotate(15 111.202 1.71464)" fill="white" stroke="#7B87DB" stroke-width="2.8"/>
<mask id="path-7-inside-3_2203_1866" fill="white">
<path fill-rule="evenodd" clip-rule="evenodd" d="M81.0002 26H66.0002V32V36V40.0836C66.0002 42.2465 67.7537 44 69.9167 44H90.0002C93.314 44 96.0002 41.3137 96.0002 38C96.0002 34.6863 93.314 32 90.0002 32H81.0002V26Z"/>
</mask>
<path fill-rule="evenodd" clip-rule="evenodd" d="M81.0002 26H66.0002V32V36V40.0836C66.0002 42.2465 67.7537 44 69.9167 44H90.0002C93.314 44 96.0002 41.3137 96.0002 38C96.0002 34.6863 93.314 32 90.0002 32H81.0002V26Z" fill="#BEC8FF"/>
<path d="M66.0002 26V23.2H63.2002V26H66.0002ZM81.0002 26H83.8002V23.2H81.0002V26ZM81.0002 32H78.2002V34.8H81.0002V32ZM66.0002 28.8H81.0002V23.2H66.0002V28.8ZM68.8002 32V26H63.2002V32H68.8002ZM68.8002 36V32H63.2002V36H68.8002ZM68.8002 40.0836V36H63.2002V40.0836H68.8002ZM69.9167 41.2C69.3001 41.2 68.8002 40.7001 68.8002 40.0836H63.2002C63.2002 43.7929 66.2073 46.8 69.9167 46.8V41.2ZM90.0002 41.2H69.9167V46.8H90.0002V41.2ZM93.2002 38C93.2002 39.7673 91.7676 41.2 90.0002 41.2V46.8C94.8604 46.8 98.8002 42.8601 98.8002 38H93.2002ZM90.0002 34.8C91.7676 34.8 93.2002 36.2327 93.2002 38H98.8002C98.8002 33.1399 94.8604 29.2 90.0002 29.2V34.8ZM81.0002 34.8H90.0002V29.2H81.0002V34.8ZM78.2002 26V32H83.8002V26H78.2002Z" fill="#7B87DB" mask="url(#path-7-inside-3_2203_1866)"/>
<rect x="67.4002" y="21.4" width="12.2" height="6.2" fill="white" stroke="#7B87DB" stroke-width="2.8"/>
<mask id="path-10-inside-4_2203_1866" fill="white">
<path fill-rule="evenodd" clip-rule="evenodd" d="M71.1477 9.67794L56.6588 5.79565L55.1059 11.5912L54.0706 15.4549L53.0137 19.3993C52.4539 21.4886 53.6938 23.6361 55.7831 24.196L75.1823 29.394C78.3831 30.2516 81.6731 28.3521 82.5308 25.1513C83.3884 21.9505 81.4889 18.6605 78.2881 17.8029L69.5948 15.4735L71.1477 9.67794Z"/>
</mask>
<path fill-rule="evenodd" clip-rule="evenodd" d="M71.1477 9.67794L56.6588 5.79565L55.1059 11.5912L54.0706 15.4549L53.0137 19.3993C52.4539 21.4886 53.6938 23.6361 55.7831 24.196L75.1823 29.394C78.3831 30.2516 81.6731 28.3521 82.5308 25.1513C83.3884 21.9505 81.4889 18.6605 78.2881 17.8029L69.5948 15.4735L71.1477 9.67794Z" fill="#BEC8FF"/>
<path d="M56.6588 5.79565L57.3835 3.09106L54.6789 2.36637L53.9542 5.07096L56.6588 5.79565ZM71.1477 9.67794L73.8523 10.4026L74.577 7.69804L71.8724 6.97335L71.1477 9.67794ZM55.1059 11.5912L57.8105 12.3159L55.1059 11.5912ZM54.0706 15.4549L56.7752 16.1796L54.0706 15.4549ZM53.0137 19.3993L50.3091 18.6746L53.0137 19.3993ZM69.5948 15.4735L66.8902 14.7488L66.1655 17.4534L68.8701 18.1781L69.5948 15.4735ZM55.9341 8.50025L70.423 12.3825L71.8724 6.97335L57.3835 3.09106L55.9341 8.50025ZM57.8105 12.3159L59.3634 6.52035L53.9542 5.07096L52.4013 10.8665L57.8105 12.3159ZM56.7752 16.1796L57.8105 12.3159L52.4013 10.8665L51.366 14.7302L56.7752 16.1796ZM55.7183 20.124L56.7752 16.1796L51.366 14.7302L50.3091 18.6746L55.7183 20.124ZM56.5078 21.4914C55.9122 21.3318 55.5587 20.7196 55.7183 20.124L50.3091 18.6746C49.3491 22.2576 51.4754 25.9405 55.0584 26.9006L56.5078 21.4914ZM75.907 26.6894L56.5078 21.4914L55.0584 26.9006L74.4576 32.0986L75.907 26.6894ZM79.8262 24.4266C79.3688 26.1337 77.6141 27.1468 75.907 26.6894L74.4576 32.0986C79.1521 33.3565 83.9775 30.5705 85.2354 25.876L79.8262 24.4266ZM77.5634 20.5075C79.2705 20.9649 80.2836 22.7196 79.8262 24.4266L85.2354 25.876C86.4932 21.1815 83.7073 16.3562 79.0128 15.0983L77.5634 20.5075ZM68.8701 18.1781L77.5634 20.5075L79.0128 15.0983L70.3195 12.7689L68.8701 18.1781ZM68.4431 8.95325L66.8902 14.7488L72.2994 16.1982L73.8523 10.4026L68.4431 8.95325Z" fill="#7B87DB" mask="url(#path-10-inside-4_2203_1866)"/>
<rect x="59.2016" y="1.71464" width="12.2" height="6.2" transform="rotate(15 59.2016 1.71464)" fill="white" stroke="#7B87DB" stroke-width="2.8"/>
<mask id="path-13-inside-5_2203_1866" fill="white">
<path fill-rule="evenodd" clip-rule="evenodd" d="M29.0002 26H14.0002V32V36V40.0836C14.0002 42.2465 15.7537 44 17.9167 44H38.0002C41.314 44 44.0002 41.3137 44.0002 38C44.0002 34.6863 41.314 32 38.0002 32H29.0002V26Z"/>
</mask>
<path fill-rule="evenodd" clip-rule="evenodd" d="M29.0002 26H14.0002V32V36V40.0836C14.0002 42.2465 15.7537 44 17.9167 44H38.0002C41.314 44 44.0002 41.3137 44.0002 38C44.0002 34.6863 41.314 32 38.0002 32H29.0002V26Z" fill="#BEC8FF"/>
<path d="M14.0002 26V23.2H11.2002V26H14.0002ZM29.0002 26H31.8002V23.2H29.0002V26ZM29.0002 32H26.2002V34.8H29.0002V32ZM14.0002 28.8H29.0002V23.2H14.0002V28.8ZM16.8002 32V26H11.2002V32H16.8002ZM16.8002 36V32H11.2002V36H16.8002ZM16.8002 40.0836V36H11.2002V40.0836H16.8002ZM17.9167 41.2C17.3001 41.2 16.8002 40.7001 16.8002 40.0836H11.2002C11.2002 43.7929 14.2073 46.8 17.9167 46.8V41.2ZM38.0002 41.2H17.9167V46.8H38.0002V41.2ZM41.2002 38C41.2002 39.7673 39.7676 41.2 38.0002 41.2V46.8C42.8604 46.8 46.8002 42.8601 46.8002 38H41.2002ZM38.0002 34.8C39.7676 34.8 41.2002 36.2327 41.2002 38H46.8002C46.8002 33.1399 42.8604 29.2 38.0002 29.2V34.8ZM29.0002 34.8H38.0002V29.2H29.0002V34.8ZM26.2002 26V32H31.8002V26H26.2002Z" fill="#7B87DB" mask="url(#path-13-inside-5_2203_1866)"/>
<rect x="15.4002" y="21.4" width="12.2" height="6.2" fill="white" stroke="#7B87DB" stroke-width="2.8"/>
<mask id="path-16-inside-6_2203_1866" fill="white">
<path fill-rule="evenodd" clip-rule="evenodd" d="M19.1477 9.67794L4.65881 5.79565L3.1059 11.5912L2.07062 15.4549L1.01372 19.3993C0.453898 21.4886 1.69378 23.6361 3.78307 24.196L23.1823 29.394C26.3831 30.2516 29.6731 28.3521 30.5308 25.1513C31.3884 21.9505 29.4889 18.6605 26.2881 17.8029L17.5948 15.4735L19.1477 9.67794Z"/>
</mask>
<path fill-rule="evenodd" clip-rule="evenodd" d="M19.1477 9.67794L4.65881 5.79565L3.1059 11.5912L2.07062 15.4549L1.01372 19.3993C0.453898 21.4886 1.69378 23.6361 3.78307 24.196L23.1823 29.394C26.3831 30.2516 29.6731 28.3521 30.5308 25.1513C31.3884 21.9505 29.4889 18.6605 26.2881 17.8029L17.5948 15.4735L19.1477 9.67794Z" fill="#BEC8FF"/>
<path d="M4.65881 5.79565L5.38351 3.09106L2.67891 2.36637L1.95422 5.07096L4.65881 5.79565ZM19.1477 9.67794L21.8523 10.4026L22.577 7.69804L19.8724 6.97335L19.1477 9.67794ZM2.07062 15.4549L4.77522 16.1796L2.07062 15.4549ZM1.01372 19.3993L-1.69087 18.6746L1.01372 19.3993ZM3.78307 24.196L3.05838 26.9006L3.78307 24.196ZM23.1823 29.394L23.907 26.6894L23.1823 29.394ZM17.5948 15.4735L14.8902 14.7488L14.1655 17.4534L16.8701 18.1781L17.5948 15.4735ZM3.93412 8.50025L18.423 12.3825L19.8724 6.97335L5.38351 3.09106L3.93412 8.50025ZM5.81049 12.3159L7.36341 6.52035L1.95422 5.07096L0.401307 10.8665L5.81049 12.3159ZM4.77522 16.1796L5.81049 12.3159L0.401307 10.8665L-0.633969 14.7302L4.77522 16.1796ZM3.71831 20.124L4.77522 16.1796L-0.633969 14.7302L-1.69087 18.6746L3.71831 20.124ZM4.50776 21.4914C3.91218 21.3318 3.55873 20.7196 3.71831 20.124L-1.69087 18.6746C-2.65093 22.2576 -0.524621 25.9405 3.05838 26.9006L4.50776 21.4914ZM23.907 26.6894L4.50776 21.4914L3.05838 26.9006L22.4576 32.0986L23.907 26.6894ZM27.8262 24.4266C27.3688 26.1337 25.6141 27.1468 23.907 26.6894L22.4576 32.0986C27.1521 33.3565 31.9775 30.5705 33.2354 25.876L27.8262 24.4266ZM25.5634 20.5075C27.2705 20.9649 28.2836 22.7196 27.8262 24.4266L33.2354 25.876C34.4932 21.1815 31.7073 16.3562 27.0128 15.0983L25.5634 20.5075ZM16.8701 18.1781L25.5634 20.5075L27.0128 15.0983L18.3195 12.7689L16.8701 18.1781ZM16.4431 8.95325L14.8902 14.7488L20.2994 16.1982L21.8523 10.4026L16.4431 8.95325Z" fill="#7B87DB" mask="url(#path-16-inside-6_2203_1866)"/>
<rect x="7.20162" y="1.71464" width="12.2" height="6.2" transform="rotate(15 7.20162 1.71464)" fill="white" stroke="#7B87DB" stroke-width="2.8"/>
</svg>
