<svg width="350" height="344" viewBox="0 0 350 344" fill="none" xmlns="http://www.w3.org/2000/svg">
<mask id="mask0_1702_3420" style="mask-type:luminance" maskUnits="userSpaceOnUse" x="47" y="59" width="260" height="260">
<path d="M177 319C248.797 319 307 260.797 307 189C307 117.203 248.797 59 177 59C105.203 59 47 117.203 47 189C47 260.797 105.203 319 177 319Z" fill="white"/>
</mask>
<g mask="url(#mask0_1702_3420)">
<path d="M177 319C248.797 319 307 260.797 307 189C307 117.203 248.797 59 177 59C105.203 59 47 117.203 47 189C47 260.797 105.203 319 177 319Z" fill="#FFFCDB"/>
<path d="M102.953 111.423L112.846 112.971L111.249 123.18L101.357 121.633C98.5432 121.193 96.6101 118.543 97.0501 115.73C97.4902 112.917 100.14 110.983 102.953 111.423Z" fill="#7BB7C2"/>
<path d="M112.402 124.746L101.15 122.978C99.4275 122.702 97.9118 121.784 96.8784 120.36C95.845 118.959 95.4317 117.214 95.7073 115.492C95.9828 113.769 96.9014 112.254 98.3252 111.22C99.726 110.187 101.471 109.773 103.194 110.049L114.446 111.817L112.425 124.746H112.402ZM100.599 113.057C100.369 113.172 100.139 113.287 99.9097 113.448C99.083 114.045 98.5548 114.917 98.3941 115.928C98.2333 116.938 98.4859 117.926 99.083 118.752C99.6801 119.579 100.553 120.107 101.563 120.268L110.106 121.6L111.277 114.114L102.757 112.782C102.022 112.667 101.288 112.782 100.622 113.057H100.599Z" fill="#333333"/>
<path d="M162.944 93.7691L157.572 102.218L148.852 96.6734L154.224 88.2243C155.752 85.8214 158.954 85.1087 161.357 86.6365C163.76 88.1644 164.472 91.3662 162.944 93.7691Z" fill="#7BB7C2"/>
<path d="M157.985 104.125L146.939 97.0977L153.048 87.4758C153.989 86.0061 155.436 84.9727 157.158 84.6053C158.858 84.2149 160.626 84.5364 162.096 85.4779C165.15 87.4069 166.046 91.4715 164.117 94.5028L158.008 104.125H157.985ZM150.751 96.271L157.136 100.336L161.774 93.0561C162.9 91.2878 162.371 88.9455 160.603 87.8202C159.753 87.2691 158.743 87.1084 157.756 87.315C156.768 87.5447 155.918 88.1188 155.39 88.9914L150.751 96.271Z" fill="#333333"/>
<path d="M143.31 127.034L139.185 117.911L148.601 113.654L152.726 122.777C153.899 125.371 152.741 128.44 150.147 129.613C147.552 130.787 144.483 129.629 143.31 127.034Z" fill="#7BB7C2"/>
<path d="M150.706 130.854C147.423 132.347 143.542 130.854 142.049 127.593L137.364 117.214L149.283 111.817L153.967 122.197C155.46 125.481 153.967 129.362 150.706 130.854ZM140.993 118.591L144.552 126.468C145.425 128.374 147.652 129.224 149.558 128.351C151.464 127.479 152.314 125.251 151.441 123.345L147.882 115.468L140.97 118.591H140.993Z" fill="#333333"/>
<path d="M129.887 133.093L125.762 123.97L135.178 119.713L139.303 128.836C140.476 131.431 139.318 134.499 136.724 135.673C134.129 136.846 131.06 135.688 129.887 133.093Z" fill="#7BB7C2"/>
<path d="M137.295 136.94C134.011 138.432 130.13 136.94 128.638 133.679L123.953 123.299L135.872 117.902L140.556 128.282C142.049 131.566 140.556 135.447 137.295 136.94ZM127.581 124.654L131.141 132.53C132.014 134.437 134.241 135.286 136.147 134.414C138.053 133.541 138.903 131.313 138.03 129.407L134.471 121.531L127.558 124.654H127.581Z" fill="#333333"/>
<path d="M118.786 91.012L105.26 126.515C102.872 132.784 109.279 138.823 115.387 136.045L164.507 113.838C170.639 111.06 170.34 102.287 164.048 99.9221L128.454 86.6258C124.573 85.1791 120.256 87.131 118.786 90.989V91.012Z" fill="#A9DEE2"/>
<path d="M165.059 115.078L115.939 137.285C112.586 138.8 108.843 138.18 106.179 135.654C103.492 133.128 102.642 129.431 103.951 126.009L117.477 90.5067C119.222 85.9598 124.343 83.6404 128.913 85.3398L164.508 98.636C167.952 99.922 170.157 102.999 170.295 106.673C170.409 110.348 168.412 113.563 165.059 115.078ZM123.287 88.0955C121.863 88.7385 120.669 89.9326 120.072 91.4942L106.546 126.997C105.467 129.844 106.638 132.301 108.085 133.656C109.532 135.011 112.058 136.022 114.836 134.782L163.957 112.575C166.712 111.335 167.631 108.763 167.562 106.765C167.493 104.767 166.414 102.264 163.566 101.208L127.972 87.9118C126.387 87.3147 124.711 87.4295 123.287 88.0725V88.0955Z" fill="#333333"/>
<path d="M140.372 107.247C140.189 107.339 139.982 107.362 139.775 107.339C139.132 107.27 138.696 106.696 138.765 106.076C139.247 101.621 144.552 100.105 144.759 100.059C145.379 99.8985 145.999 100.243 146.159 100.863C146.32 101.46 145.999 102.103 145.356 102.287C145.31 102.287 141.337 103.458 141.038 106.351C140.992 106.765 140.717 107.109 140.372 107.27V107.247Z" fill="#333333"/>
<path d="M126.387 113.563C126.02 113.724 125.607 113.701 125.262 113.448C122.874 111.772 119.383 113.999 119.36 114.022C118.809 114.367 118.12 114.206 117.776 113.678C117.431 113.149 117.569 112.438 118.097 112.093C118.281 111.955 122.92 108.993 126.571 111.565C127.099 111.932 127.214 112.644 126.847 113.172C126.732 113.356 126.571 113.471 126.387 113.563Z" fill="#333333"/>
<path d="M130.567 115.744C131.646 118.132 134.471 119.211 136.859 118.109C139.247 117.007 140.327 114.205 139.224 111.817L134.884 113.769L130.544 115.721L130.567 115.744Z" fill="#FB7A8E"/>
<path d="M251.474 240.004C294.811 240.004 329.943 204.872 329.943 161.535C329.943 118.198 294.811 83.0667 251.474 83.0667C208.137 83.0667 173.006 118.198 173.006 161.535C173.006 204.872 208.137 240.004 251.474 240.004Z" fill="#F9A0B1"/>
<path d="M251.473 241.382C207.451 241.382 171.627 205.558 171.627 161.535C171.627 117.513 207.451 81.689 251.473 81.689C295.496 81.689 331.32 117.513 331.32 161.535C331.32 205.558 295.496 241.382 251.473 241.382ZM251.473 84.4676C208.967 84.4676 174.383 119.052 174.383 161.558C174.383 204.065 208.967 238.649 251.473 238.649C293.98 238.649 328.564 204.065 328.564 161.558C328.564 119.052 293.98 84.4676 251.473 84.4676Z" fill="#333333"/>
<path d="M207.336 189.023C210.696 189.023 213.421 186.298 213.421 182.938C213.421 179.577 210.696 176.852 207.336 176.852C203.975 176.852 201.25 179.577 201.25 182.938C201.25 186.298 203.975 189.023 207.336 189.023Z" fill="#FB7A8E"/>
<path d="M251.381 189.023C254.742 189.023 257.467 186.298 257.467 182.938C257.467 179.577 254.742 176.852 251.381 176.852C248.02 176.852 245.296 179.577 245.296 182.938C245.296 186.298 248.02 189.023 251.381 189.023Z" fill="#FB7A8E"/>
<path d="M219.921 171.157C220.472 171.616 220.816 172.053 220.885 172.145C221.39 172.788 221.275 173.706 220.632 174.211C219.989 174.717 219.071 174.579 218.566 173.959C218.267 173.591 217.257 172.604 216.177 172.604C215.443 172.604 214.685 173.04 213.927 173.959C213.399 174.579 212.48 174.671 211.837 174.142C211.217 173.614 211.125 172.673 211.654 172.053C213.031 170.422 214.57 169.619 216.246 169.664C217.831 169.687 219.117 170.468 219.921 171.157Z" fill="#333333"/>
<path d="M246.329 171.157C246.88 171.616 247.224 172.053 247.293 172.145C247.798 172.788 247.684 173.706 247.041 174.211C246.398 174.717 245.479 174.579 244.974 173.959C244.675 173.591 243.665 172.604 242.586 172.604C241.851 172.604 241.093 173.04 240.335 173.959C239.807 174.579 238.888 174.671 238.245 174.142C237.625 173.614 237.534 172.673 238.062 172.053C239.44 170.422 240.978 169.619 242.655 169.664C244.239 169.687 245.525 170.468 246.329 171.157Z" fill="#333333"/>
<path d="M166.276 238.051C175.025 218.853 166.575 196.234 147.422 187.484L75.3839 154.6C71.8704 152.992 67.6909 154.554 66.0834 158.067L40.2028 214.743C40.134 214.927 40.134 215.11 40.088 215.294C39.9962 215.455 39.8354 215.57 39.7665 215.753L13.8859 272.429C12.2785 275.942 13.84 280.122 17.3535 281.729L89.392 314.614C108.567 323.363 131.187 314.912 139.936 295.76C145.425 283.727 144.139 270.362 137.709 259.89C149.834 257.893 160.765 250.108 166.253 238.097L166.276 238.051Z" fill="#A9B5FF"/>
<path d="M88.8174 315.831L16.7789 282.946C12.5765 281.017 10.7164 276.034 12.6224 271.831L38.503 215.156C38.5948 214.949 38.7097 214.788 38.8015 214.674C38.8015 214.536 38.8704 214.352 38.9623 214.145L64.8429 157.47C66.7718 153.267 71.7551 151.407 75.9575 153.313L147.996 186.198C167.814 195.246 176.586 218.738 167.538 238.556C162.349 249.969 152.107 258.168 139.913 260.808C145.906 271.739 146.411 284.829 141.222 296.242C132.151 316.106 108.658 324.855 88.8404 315.808L88.8174 315.831ZM74.8093 155.839C71.9847 154.553 68.6319 155.793 67.346 158.618L41.4654 215.294C41.4654 215.294 41.4654 215.569 41.3735 215.73C41.1898 216.097 41.075 216.235 40.9602 216.373L15.1255 272.956C13.8395 275.781 15.0796 279.134 17.9042 280.42L89.9427 313.305C108.383 321.732 130.245 313.557 138.673 295.117C143.771 283.933 142.967 271.005 136.537 260.533L135.458 258.788L137.478 258.443C149.604 256.445 159.891 248.592 164.989 237.431C173.417 218.945 165.242 197.106 146.802 188.678L74.7634 155.793L74.8093 155.839Z" fill="#333333"/>
<path d="M91.5961 214.88C91.9512 214.88 92.2391 214.592 92.2391 214.237C92.2391 213.882 91.9512 213.594 91.5961 213.594C91.241 213.594 90.9531 213.882 90.9531 214.237C90.9531 214.592 91.241 214.88 91.5961 214.88Z" fill="#7B87DB"/>
<path d="M87.9682 217.2C88.3233 217.2 88.6112 216.912 88.6112 216.557C88.6112 216.201 88.3233 215.914 87.9682 215.914C87.6131 215.914 87.3252 216.201 87.3252 216.557C87.3252 216.912 87.6131 217.2 87.9682 217.2Z" fill="#7B87DB"/>
<path d="M92.2162 219.128C92.5714 219.128 92.8592 218.84 92.8592 218.485C92.8592 218.13 92.5714 217.842 92.2162 217.842C91.8611 217.842 91.5732 218.13 91.5732 218.485C91.5732 218.84 91.8611 219.128 92.2162 219.128Z" fill="#7B87DB"/>
<path d="M137.226 235.732C137.581 235.732 137.869 235.444 137.869 235.089C137.869 234.734 137.581 234.446 137.226 234.446C136.871 234.446 136.583 234.734 136.583 235.089C136.583 235.444 136.871 235.732 137.226 235.732Z" fill="#7B87DB"/>
<path d="M133.621 238.028C133.976 238.028 134.264 237.74 134.264 237.385C134.264 237.03 133.976 236.742 133.621 236.742C133.265 236.742 132.978 237.03 132.978 237.385C132.978 237.74 133.265 238.028 133.621 238.028Z" fill="#7B87DB"/>
<path d="M137.846 239.957C138.201 239.957 138.489 239.669 138.489 239.314C138.489 238.959 138.201 238.671 137.846 238.671C137.491 238.671 137.203 238.959 137.203 239.314C137.203 239.669 137.491 239.957 137.846 239.957Z" fill="#7B87DB"/>
<path d="M110.564 235.18C110.564 235.18 110.495 235.134 110.449 235.134C105.604 232.861 103.744 227.671 103.675 227.441C103.468 226.844 103.79 226.178 104.387 225.972C104.984 225.765 105.65 226.086 105.857 226.684C105.857 226.729 107.487 231.207 111.46 233.068H111.529C113.871 234.17 116.627 234.124 119.704 232.999C120.301 232.769 120.967 233.068 121.174 233.665C121.38 234.262 121.105 234.928 120.508 235.134C116.856 236.489 113.504 236.512 110.587 235.18H110.564Z" fill="#333333"/>
<path d="M101.15 226.982C100.644 226.753 100.3 226.5 100.208 226.454C99.703 226.087 99.5881 225.352 99.9556 224.847C100.323 224.341 101.058 224.25 101.563 224.594C101.862 224.801 102.826 225.329 103.63 225.122C104.181 224.984 104.663 224.479 105.031 223.653C105.306 223.078 105.972 222.826 106.546 223.078C107.12 223.354 107.373 224.02 107.12 224.594C106.431 226.087 105.444 227.005 104.181 227.35C102.987 227.648 101.862 227.35 101.127 226.982H101.15Z" fill="#333333"/>
<path d="M135.366 224.364C135.619 224.938 135.733 225.375 135.756 225.489C135.894 226.178 135.481 226.844 134.792 227.005C134.103 227.143 133.437 226.707 133.276 226.041C133.184 225.65 132.771 224.502 131.944 224.089C131.37 223.813 130.612 223.882 129.694 224.272C129.051 224.548 128.316 224.272 128.018 223.629C127.742 222.986 128.018 222.229 128.661 221.953C130.314 221.218 131.807 221.172 133.093 221.815C134.31 222.435 134.999 223.515 135.366 224.341V224.364Z" fill="#333333"/>
<path d="M109.505 212.24C110.232 210.648 109.811 208.896 108.565 208.327C107.319 207.758 105.72 208.588 104.993 210.18C104.266 211.772 104.687 213.524 105.933 214.093C107.179 214.662 108.778 213.832 109.505 212.24Z" fill="#333333"/>
</g>
<g clip-path="url(#clip0_1702_3420)">
<path d="M64.9745 274.382C65.0881 274.229 65.2102 274.08 65.3344 273.967C70.5269 268.668 77.763 267.726 84.8562 267.895C86.1942 267.927 86.1244 265.856 84.795 265.828C77.5233 265.648 66.7793 267.288 62.3562 274.061C55.2964 273.599 47.5607 276.219 42.4288 280.034C41.6638 280.605 40.8274 281.436 40.0285 282.44C37.761 282.232 35.5723 282.383 34.0599 282.805C27.4578 284.642 20.7613 289.184 17.1661 295.121C16.4696 296.266 18.3047 297.229 18.9961 296.093C22.6506 290.075 31.1037 284.024 38.7359 284.243C36.2004 288.239 34.8664 293.487 39.5308 295.557C43.1294 297.151 49.8008 294.23 50.0977 289.996C50.3687 285.944 46.7442 283.743 42.6681 282.843C43.3656 282.012 44.056 281.351 44.67 280.958C49.4329 277.888 55.4464 276.007 61.2437 276.249C60.9401 277.021 60.7004 277.843 60.5505 278.73C59.6671 283.941 62.3706 289.8 68.4342 287.774C72.7365 286.336 76.1892 279.991 71.447 276.889C69.5029 275.618 67.2988 274.809 64.9745 274.382ZM41.3527 284.587C41.8115 284.694 42.2638 284.833 42.706 284.988C44.9705 285.833 50.2678 288.483 47.1237 291.542C46.0338 292.606 44.664 293.437 43.1435 293.714C36.7086 294.872 38.5024 288.862 41.3577 284.578L41.3527 284.587ZM63.76 276.487C64.0486 276.529 64.3371 276.571 64.624 276.636C67.2251 277.144 73.6529 278.662 71.2757 282.704C70.3836 284.222 68.9094 285.663 67.1136 286.034C61.3992 287.21 61.9324 280.621 63.76 276.487Z" fill="#F77474"/>
<path d="M86.2212 266.342C86.4109 266.848 86.3406 267.422 86.044 267.828C85.7764 268.204 85.3409 268.412 84.8399 268.396C78.8566 268.253 71.3269 268.768 65.9321 274.075C68.0819 274.562 70.0306 275.372 71.7125 276.477C72.7941 277.182 73.5396 278.085 73.9297 279.138C74.4309 280.534 74.2963 282.184 73.5198 283.781C72.5228 285.851 70.6309 287.569 68.5857 288.246C64.8614 289.49 61.8489 288.043 60.5113 284.38C59.8838 282.665 59.7268 280.624 60.054 278.647C60.1649 278.004 60.3205 277.365 60.5292 276.734C55.2892 276.669 49.6392 278.346 44.9275 281.388C44.5285 281.652 44.0672 282.042 43.5882 282.561C48.2504 283.806 50.8352 286.532 50.597 290.034C50.4695 291.908 49.1906 293.709 47.0735 294.981C44.5214 296.52 41.4089 296.94 39.3376 296.024C37.8103 295.346 36.7738 294.307 36.2797 292.938C35.2409 290.088 36.7694 286.66 37.8536 284.757C30.5668 284.997 22.8585 290.707 19.4305 296.36C19.1213 296.886 18.5646 297.162 17.9638 297.098C17.3493 297.039 16.7986 296.634 16.5982 296.087C16.4592 295.692 16.5068 295.256 16.7486 294.864C20.2425 289.1 26.8269 284.294 33.9355 282.326C35.4975 281.898 37.628 281.747 39.8214 281.924C40.5934 280.985 41.3995 280.206 42.1457 279.648C47.6132 275.577 55.4214 273.208 62.1167 273.56C66.48 267.205 76.6611 265.141 84.8146 265.341C85.4681 265.354 86.0153 265.746 86.2334 266.361L86.2212 266.342ZM64.077 274.725L64.5738 274.077C64.7061 273.911 64.8384 273.746 64.9727 273.616C70.6478 267.811 78.5887 267.249 84.8671 267.402C85.037 267.409 85.1617 267.355 85.2362 267.248C85.3396 267.112 85.3599 266.88 85.2879 266.687C85.2315 266.526 85.0961 266.342 84.7874 266.335C76.8038 266.141 66.8245 268.139 62.7805 274.345L62.6335 274.595L62.3349 274.57C55.8019 274.14 48.1097 276.449 42.7411 280.45C42.005 280.992 41.206 281.798 40.4325 282.758L40.2612 282.971L39.9985 282.944C37.8649 282.745 35.7 282.876 34.2099 283.299C27.3341 285.207 20.9677 289.839 17.6091 295.393C17.3962 295.755 17.6924 296.08 18.0666 296.115C18.2846 296.138 18.4656 296.048 18.5822 295.849C22.2976 289.728 30.8591 283.533 38.7641 283.761L39.6407 283.789L39.1688 284.533C37.1914 287.639 36.4852 290.576 37.2217 292.599C37.626 293.707 38.4739 294.553 39.7446 295.115C41.5111 295.898 44.3134 295.493 46.5618 294.135C48.394 293.031 49.497 291.511 49.6017 289.971C49.6568 289.226 49.5614 288.521 49.3275 287.873C48.2816 284.996 44.6384 283.793 42.5626 283.338L41.7584 283.167L42.2897 282.54C43.0364 281.645 43.773 280.964 44.397 280.554C49.4788 277.278 55.6307 275.535 61.2719 275.767L61.9736 275.796L61.7187 276.447C61.4136 277.242 61.1906 278.016 61.0589 278.832C60.7474 280.644 60.8993 282.496 61.4654 284.059C62.0052 285.548 63.7494 288.836 68.2809 287.324C70.0472 286.727 71.7571 285.18 72.6243 283.37C73.2812 282.016 73.4062 280.64 72.9948 279.504C72.6854 278.65 72.0718 277.918 71.1747 277.332C69.3721 276.156 67.2536 275.34 64.8898 274.901L64.0841 274.752L64.077 274.725ZM72.1269 280.073C72.452 280.96 72.3097 281.932 71.7066 282.958C71.1743 283.863 69.6739 286.02 67.219 286.526C63.9509 287.191 62.7809 285.412 62.373 284.291C61.5082 281.915 62.3371 278.493 63.3071 276.291L63.4653 275.943L63.953 276.021C64.2106 276.056 64.4631 276.1 64.7242 276.149C68.9884 276.986 71.4852 278.304 72.1269 280.073ZM63.3064 283.947C63.8426 285.422 65.0529 285.948 67.0165 285.548C68.4443 285.251 69.8764 284.098 70.8445 282.451C71.2956 281.684 71.4081 281.019 71.1849 280.412C70.8298 279.438 69.3805 278.075 64.5236 277.122C64.369 277.089 64.2179 277.07 64.0718 277.042C63.1804 279.209 62.6262 282.085 63.3064 283.947ZM48.4378 288.695C48.7173 289.463 48.7759 290.646 47.4801 291.902C46.2082 293.138 44.737 293.944 43.2352 294.209C40.0315 294.785 38.8788 293.608 38.4781 292.514C37.6923 290.358 39.2392 286.859 40.9418 284.299L41.1365 284.008L41.4716 284.089C42.001 284.214 42.4619 284.358 42.8817 284.512C43.6595 284.807 47.5836 286.36 48.4292 288.69L48.4378 288.695ZM39.4201 292.175C39.8051 293.236 41.0311 293.597 43.0551 293.233C44.7023 292.937 45.9834 291.962 46.7707 291.195C47.5189 290.475 47.751 289.765 47.4908 289.043C46.946 287.563 44.4796 286.194 42.53 285.465C42.2374 285.351 41.921 285.258 41.5737 285.158C39.7347 288.009 38.8859 290.735 39.4114 292.169L39.4201 292.175Z" fill="#F77474"/>
</g>
<path d="M289.389 46.0166C289.52 46.7751 288.781 47.3914 288.059 47.1259L278.071 43.4564C277.349 43.1909 277.184 42.2428 277.776 41.7498L285.947 34.935C286.538 34.442 287.442 34.7738 287.573 35.5323L289.389 46.0166Z" fill="#F77474"/>
<circle cx="25.5" cy="267.5" r="3.5" fill="#2FC1A5"/>
<circle cx="60.5" cy="327.5" r="6.5" fill="#FFED1B"/>
<g clip-path="url(#clip1_1702_3420)">
<path d="M304.85 73.5599C304.83 73.7499 304.8 73.9399 304.75 74.0999C302.96 81.2999 297.2 85.7799 291 89.2299C289.83 89.8799 290.94 91.6299 292.1 90.9799C298.46 87.4499 306.89 80.5899 307.27 72.5099C313.59 69.3299 318.93 63.1499 321.42 57.2599C321.79 56.3799 322.09 55.2399 322.27 53.9699C324.33 52.9999 326.14 51.7599 327.23 50.6299C331.99 45.6999 335.46 38.3899 335.55 31.4499C335.57 30.1099 333.5 30.2099 333.48 31.5399C333.38 38.5799 329.16 48.0799 322.47 51.7599C322.63 47.0299 321.12 41.8299 316.05 42.4099C312.14 42.8599 307.87 48.7599 309.76 52.5599C311.58 56.1899 315.82 56.2499 319.79 54.9599C319.61 56.0299 319.35 56.9499 319.02 57.5999C316.47 62.66 312.24 67.3299 307.12 70.0599C306.99 69.2399 306.78 68.4099 306.46 67.5699C304.58 62.6299 299.28 58.9499 295.08 63.7699C292.1 67.1899 292.34 74.4099 298 74.6799C300.32 74.7899 302.63 74.3699 304.85 73.5599ZM320.04 52.7899C319.59 52.9299 319.13 53.0399 318.67 53.1299C316.29 53.5499 310.38 53.9499 311.54 49.7199C311.94 48.2499 312.7 46.8399 313.87 45.8299C318.83 41.5699 320.33 47.6599 320.04 52.7999V52.7899ZM304.83 71.1299C304.56 71.2399 304.29 71.3499 304.01 71.4399C301.51 72.3199 295.2 74.2699 295.2 69.5799C295.2 67.82 295.74 65.8299 297.1 64.5999C301.43 60.6899 304.31 66.6399 304.83 71.1299Z" fill="#2FC1A5"/>
<path d="M290.61 91.26C290.19 90.92 289.96 90.39 290.01 89.89C290.05 89.43 290.32 89.03 290.76 88.79C295.99 85.88 302.22 81.62 304.18 74.31C302.08 74.98 299.99 75.27 297.98 75.17C296.69 75.11 295.59 74.71 294.72 74C293.58 73.05 292.86 71.56 292.72 69.79C292.53 67.5 293.29 65.06 294.71 63.44C297.29 60.48 300.62 60.2 303.63 62.68C305.04 63.84 306.21 65.52 306.93 67.39C307.16 68 307.35 68.63 307.49 69.28C312.04 66.68 316.06 62.37 318.58 57.36C318.79 56.93 318.99 56.36 319.14 55.67C314.49 56.96 310.88 55.92 309.31 52.78C308.47 51.1 308.66 48.9 309.84 46.73C311.26 44.11 313.73 42.17 315.98 41.91C317.64 41.72 319.06 42.09 320.18 43.02C322.52 44.95 322.94 48.68 322.97 50.87C329.13 46.97 332.88 38.14 332.97 31.53C332.97 30.92 333.31 30.4 333.86 30.15C334.42 29.89 335.1 29.96 335.55 30.33C335.87 30.6 336.05 31 336.04 31.46C335.95 38.2 332.71 45.68 327.58 50.98C326.45 52.14 324.69 53.35 322.71 54.31C322.52 55.51 322.22 56.59 321.86 57.45C319.21 63.73 313.68 69.73 307.73 72.82C307.19 80.51 299.46 87.45 292.33 91.41C291.76 91.73 291.09 91.67 290.59 91.25L290.61 91.26ZM305.45 72.81L305.35 73.62C305.32 73.83 305.29 74.04 305.24 74.22C303.29 82.1 296.73 86.61 291.24 89.66C291.09 89.74 291.01 89.85 291 89.98C290.98 90.15 291.08 90.36 291.24 90.49C291.37 90.6 291.58 90.69 291.85 90.54C298.83 86.66 306.42 79.88 306.76 72.48V72.19L307.03 72.06C312.88 69.12 318.34 63.23 320.94 57.06C321.3 56.22 321.58 55.12 321.76 53.9L321.8 53.63L322.04 53.52C323.98 52.61 325.78 51.4 326.85 50.28C331.81 45.15 334.95 37.93 335.03 31.44C335.03 31.02 334.61 30.89 334.27 31.05C334.07 31.14 333.96 31.31 333.96 31.54C333.86 38.7 329.62 48.38 322.69 52.19L321.92 52.61L321.95 51.73C322.08 48.05 321.2 45.16 319.54 43.79C318.63 43.04 317.47 42.74 316.09 42.9C314.17 43.12 311.96 44.89 310.71 47.2C309.69 49.08 309.51 50.95 310.2 52.33C310.53 53 310.97 53.56 311.5 54C313.86 55.95 317.61 55.14 319.63 54.48L320.41 54.22L320.27 55.03C320.08 56.18 319.79 57.14 319.46 57.81C316.74 63.21 312.32 67.83 307.34 70.49L306.72 70.82L306.61 70.13C306.47 69.29 306.27 68.51 305.97 67.74C305.32 66.02 304.25 64.5 302.97 63.44C301.75 62.43 298.58 60.48 295.44 64.08C294.22 65.49 293.53 67.69 293.7 69.69C293.82 71.19 294.41 72.44 295.34 73.21C296.04 73.79 296.94 74.11 298.01 74.16C300.16 74.26 302.4 73.89 304.66 73.07L305.43 72.79L305.45 72.81ZM295.8 72.28C295.07 71.68 294.7 70.77 294.7 69.58C294.7 68.53 294.9 65.91 296.76 64.23C299.24 62 301.15 62.94 302.07 63.7C304.02 65.31 305.04 68.68 305.32 71.07L305.36 71.45L304.9 71.63C304.66 71.73 304.42 71.82 304.17 71.91C300.07 73.35 297.25 73.48 295.8 72.28ZM301.44 64.47C300.23 63.47 298.92 63.63 297.43 64.97C296.35 65.95 295.7 67.67 295.7 69.58C295.7 70.47 295.94 71.1 296.44 71.51C297.24 72.17 299.18 72.61 303.85 70.97C304 70.92 304.14 70.86 304.28 70.81C303.95 68.49 302.97 65.73 301.44 64.47ZM311.85 52.84C311.22 52.32 310.57 51.33 311.05 49.59C311.52 47.88 312.38 46.44 313.54 45.45C316.01 43.33 317.6 43.76 318.5 44.5C320.27 45.96 320.71 49.76 320.54 52.83L320.52 53.18L320.19 53.28C319.67 53.44 319.2 53.55 318.76 53.63C317.94 53.77 313.77 54.42 311.86 52.84H311.85ZM317.86 45.27C316.99 44.55 315.75 44.86 314.19 46.2C312.92 47.29 312.31 48.78 312.02 49.84C311.74 50.84 311.9 51.57 312.49 52.06C313.71 53.06 316.53 52.99 318.58 52.63C318.89 52.58 319.21 52.5 319.56 52.41C319.7 49.02 319.05 46.24 317.87 45.27H317.86Z" fill="#2FC1A5"/>
</g>
<path d="M113.22 43.1673C113.334 43.2574 113.441 43.355 113.525 43.4526C117.401 47.5064 117.89 52.9641 117.539 58.2866C117.47 59.2926 119.05 59.3076 119.118 58.3092C119.485 52.859 118.569 44.7438 113.548 41.2305C114.12 35.9455 112.365 30.0674 109.618 26.1037C109.206 25.5181 108.595 24.8575 107.863 24.2269C108.092 22.5303 108.046 20.8862 107.771 19.7376C106.581 14.7154 103.33 9.55798 98.9119 6.66774C98.0649 6.11972 97.2713 7.4635 98.1183 8.01902C102.598 10.9468 106.94 17.478 106.528 23.1909C103.559 21.164 99.5987 20.0004 97.8741 23.4386C96.5464 26.0886 98.5609 31.186 101.781 31.5313C104.864 31.8616 106.65 29.2041 107.466 26.1787C108.077 26.7267 108.565 27.2673 108.84 27.7327C111.03 31.4037 112.274 35.968 111.907 40.3146C111.327 40.0669 110.709 39.8642 110.038 39.7215C106.093 38.9033 101.537 40.7425 102.888 45.3519C103.849 48.625 108.58 51.4176 111.091 47.9493C112.121 46.5305 112.808 44.9015 113.205 43.1748L113.22 43.1673ZM106.184 25.1427C106.085 25.4806 105.97 25.8184 105.833 26.1487C105.116 27.8228 102.933 31.7115 100.698 29.2566C99.9192 28.4083 99.324 27.3573 99.1638 26.2012C98.4846 21.3366 103.01 22.8681 106.184 25.1427ZM111.655 42.1989C111.61 42.4166 111.572 42.6268 111.518 42.8445C111.045 44.7813 109.694 49.5559 106.68 47.6491C105.551 46.9359 104.498 45.7798 104.269 44.4285C103.551 40.1044 108.557 40.7125 111.648 42.2064L111.655 42.1989Z" fill="#FFED1B"/>
<path d="M118.684 59.3603C118.287 59.4879 117.859 59.4128 117.554 59.1801C117.272 58.9624 117.134 58.6396 117.157 58.2567C117.455 53.775 117.295 48.1071 113.426 43.8956C112.983 45.4947 112.312 46.9285 111.419 48.1597C110.847 48.9479 110.137 49.4809 109.32 49.7362C108.245 50.074 106.993 49.9163 105.795 49.2857C104.246 48.475 103.002 47.0036 102.544 45.4496C101.713 42.6194 102.911 40.3973 105.749 39.5115C107.077 39.0911 108.641 39.0385 110.137 39.3463C110.625 39.4514 111.106 39.5866 111.579 39.7667C111.793 35.833 110.694 31.5464 108.527 27.9205C108.344 27.6127 108.054 27.2599 107.672 26.877C106.573 30.3378 104.414 32.1921 101.751 31.9068C100.331 31.7491 98.9959 30.7357 98.0879 29.1141C96.9967 27.1548 96.7754 24.8051 97.5384 23.2811C98.1031 22.1551 98.9273 21.4118 99.988 21.0815C102.193 20.3909 104.757 21.6446 106.177 22.5154C106.23 17.0427 102.109 11.0821 97.9124 8.33446C97.5232 8.07922 97.3248 7.65882 97.3935 7.20839C97.4469 6.74295 97.775 6.34507 98.1947 6.20995C98.4999 6.11235 98.8281 6.1649 99.1257 6.36009C103.407 9.16024 106.863 14.2501 108.145 19.6477C108.428 20.8338 108.473 22.4328 108.267 24.0694C108.962 24.6774 109.534 25.308 109.931 25.8786C112.861 30.1051 114.426 36.0357 113.945 41.0429C118.661 44.5112 119.904 52.221 119.5 58.3243C119.47 58.8123 119.157 59.2101 118.684 59.3528V59.3603ZM112.983 42.4843L113.464 42.8822C113.586 42.9873 113.708 43.0924 113.807 43.1975C118.05 47.6342 118.241 53.6098 117.92 58.3093C117.913 58.4369 117.943 58.527 118.027 58.5871C118.134 58.6696 118.302 58.6922 118.455 58.6396C118.577 58.6021 118.729 58.5045 118.745 58.2718C119.149 52.2886 117.936 44.7439 113.327 41.5234L113.144 41.3958L113.166 41.1781C113.701 36.2909 112.182 30.4504 109.305 26.299C108.908 25.7284 108.328 25.1053 107.619 24.4973L107.466 24.3621L107.497 24.1594C107.71 22.5679 107.68 20.9389 107.413 19.8053C106.161 14.5954 102.827 9.67823 98.706 6.98318C98.4389 6.81052 98.1794 7.02071 98.1413 7.30598C98.1184 7.47114 98.1794 7.60627 98.3321 7.70386C102.88 10.6767 107.336 17.2979 106.909 23.2136L106.863 23.8742L106.314 23.4988C104.009 21.9223 101.789 21.2992 100.225 21.7872C99.3699 22.0575 98.6907 22.6655 98.2252 23.6039C97.5766 24.9027 97.7903 27.0197 98.7594 28.7463C99.5454 30.1501 100.667 31.0285 101.835 31.1561C102.399 31.2161 102.941 31.1711 103.445 31.0134C105.673 30.3153 106.695 27.6202 107.115 26.0813L107.275 25.4807L107.741 25.8936C108.397 26.4867 108.901 27.0497 109.183 27.5376C111.518 31.4564 112.655 36.1183 112.304 40.3373L112.258 40.8628L111.77 40.6526C111.175 40.3973 110.595 40.2097 109.977 40.082C108.603 39.7968 107.184 39.8493 105.978 40.2247C104.826 40.585 102.262 41.7937 103.277 45.2394C103.674 46.5832 104.803 47.9119 106.154 48.6251C107.169 49.1581 108.206 49.3008 109.092 49.023C109.755 48.8128 110.328 48.3774 110.801 47.7243C111.755 46.4105 112.449 44.8415 112.854 43.0849L112.991 42.4843H112.983ZM108.657 48.3624C107.97 48.5801 107.23 48.445 106.467 47.957C105.795 47.5291 104.2 46.3355 103.887 44.4812C103.475 42.0114 104.872 41.1856 105.742 40.9153C107.581 40.3373 110.16 41.0655 111.816 41.8687L112.075 41.9963L111.999 42.3642C111.961 42.5594 111.923 42.7471 111.877 42.9347C111.106 46.1102 110.023 47.9345 108.649 48.3699L108.657 48.3624ZM105.986 41.621C104.841 41.9813 104.406 42.8747 104.65 44.3536C104.834 45.4346 105.665 46.5457 106.886 47.3189C107.459 47.6792 107.962 47.7843 108.428 47.6417C109.183 47.4015 110.267 46.3655 111.144 42.7471C111.175 42.6344 111.198 42.5218 111.221 42.4092C109.595 41.681 107.42 41.1706 105.978 41.621H105.986ZM102.827 30.3228C102.231 30.5105 101.331 30.518 100.408 29.5045C99.4996 28.5136 98.9425 27.3875 98.7823 26.2539C98.4465 23.8291 99.3775 23.0034 100.225 22.7406C101.888 22.2226 104.505 23.4838 106.405 24.8426L106.619 25.0002L106.543 25.2555C106.428 25.6459 106.306 25.9912 106.177 26.299C105.932 26.877 104.62 29.7673 102.819 30.3303L102.827 30.3228ZM100.453 23.4538C99.6293 23.709 99.3241 24.6174 99.5377 26.1488C99.7132 27.395 100.415 28.386 100.972 29.0015C101.499 29.5871 102.033 29.7823 102.59 29.6021C103.735 29.2418 104.864 27.4325 105.475 25.9987C105.566 25.781 105.65 25.5483 105.734 25.293C103.613 23.8216 101.56 23.1085 100.453 23.4538Z" fill="#FFED1B"/>
<path d="M308.495 295.599C308.654 295.631 308.81 295.671 308.944 295.721C314.858 297.697 318.177 302.756 320.595 308.111C321.046 309.12 322.611 308.334 322.159 307.325C319.687 301.834 314.572 294.408 307.808 293.536C305.622 288.098 300.847 283.272 296.082 280.807C295.378 280.44 294.438 280.119 293.389 279.872C292.73 278.104 291.832 276.53 290.962 275.552C287.187 271.282 281.313 267.919 275.475 267.354C274.352 267.248 274.275 268.958 275.388 269.068C281.302 269.644 288.966 273.784 291.534 279.558C287.572 279.093 283.072 279.972 283.168 284.202C283.242 287.456 287.872 291.387 291.219 290.09C294.418 288.845 294.8 285.351 294.02 281.986C294.9 282.205 295.664 282.488 296.182 282.804C300.243 285.265 303.839 289.07 305.74 293.488C305.042 293.54 304.328 293.657 303.596 293.865C299.291 295.073 295.778 299.181 299.503 302.98C302.152 305.681 308.245 305.986 308.909 301.338C309.18 299.434 309.011 297.501 308.497 295.617L308.495 295.599ZM292.211 281.626C292.286 282.009 292.353 282.388 292.388 282.782C292.559 284.779 292.432 289.67 288.959 288.42C287.758 287.984 286.624 287.263 285.866 286.229C282.661 281.842 287.909 281.036 292.211 281.626ZM306.451 295.445C306.523 295.676 306.595 295.906 306.648 296.139C307.193 298.264 308.343 303.602 304.394 303.266C302.915 303.144 301.277 302.556 300.351 301.353C297.396 297.502 302.632 295.556 306.443 295.442L306.451 295.445Z" fill="#FFED1B"/>
<path d="M322.284 308.567C321.958 308.889 321.502 309.04 321.08 308.963C320.69 308.899 320.381 308.651 320.215 308.271C318.18 303.758 315.079 298.328 309.081 296.196C309.475 297.973 309.56 299.707 309.323 301.366C309.168 302.426 308.751 303.3 308.08 303.973C307.193 304.851 305.883 305.332 304.386 305.328C302.436 305.324 300.448 304.526 299.199 303.248C296.912 300.912 296.935 298.146 299.26 295.841C300.347 294.754 301.853 293.911 303.488 293.452C304.016 293.302 304.564 293.194 305.124 293.127C303.286 289.192 299.974 285.582 295.965 283.149C295.622 282.942 295.15 282.741 294.586 282.568C295.31 286.488 294.149 289.392 291.386 290.47C289.906 291.04 288.068 290.732 286.332 289.611C284.237 288.258 282.806 286.089 282.759 284.21C282.724 282.831 283.156 281.688 284.029 280.823C285.838 279.028 289.005 278.941 290.849 279.074C288.052 273.721 280.914 270.015 275.353 269.481C274.839 269.433 274.429 269.121 274.261 268.652C274.081 268.168 274.199 267.618 274.542 267.275C274.791 267.03 275.145 266.913 275.528 266.948C281.192 267.494 287.23 270.695 291.293 275.284C292.186 276.298 293.065 277.829 293.716 279.524C294.712 279.768 295.598 280.087 296.29 280.441C301.371 283.067 305.988 288.039 308.117 293.162C314.55 294.142 319.788 301.002 322.56 307.153C322.783 307.643 322.677 308.189 322.292 308.57L322.284 308.567ZM307.909 295.044L308.584 295.188C308.759 295.226 308.931 295.272 309.083 295.319C315.566 297.48 318.843 303.197 320.98 307.933C321.038 308.061 321.117 308.135 321.229 308.149C321.372 308.176 321.552 308.109 321.673 307.986C321.774 307.89 321.867 307.721 321.764 307.479C319.05 301.456 313.939 294.732 307.733 293.933L307.491 293.905L307.397 293.684C305.381 288.665 300.849 283.751 295.867 281.171C295.183 280.82 294.287 280.506 293.268 280.271L293.043 280.223L292.962 280.016C292.344 278.351 291.47 276.786 290.612 275.821C286.681 271.378 280.852 268.29 275.398 267.76C275.041 267.726 274.907 268.066 275.008 268.361C275.075 268.536 275.201 268.627 275.401 268.648C281.422 269.228 289.234 273.405 291.894 279.381L292.191 280.049L291.457 279.964C288.374 279.603 285.865 280.128 284.587 281.402C283.888 282.1 283.538 283.035 283.566 284.18C283.596 285.778 284.917 287.721 286.759 288.917C288.255 289.888 289.814 290.172 291.029 289.7C291.615 289.474 292.123 289.147 292.536 288.742C294.358 286.934 293.971 283.785 293.577 282.079L293.425 281.411L294.099 281.58C295.053 281.818 295.838 282.118 296.376 282.45C300.708 285.073 304.251 289.035 306.096 293.318L306.33 293.848L305.745 293.889C305.029 293.943 304.36 294.059 303.682 294.242C302.189 294.665 300.82 295.435 299.829 296.415C298.883 297.351 296.993 299.834 299.78 302.665C300.872 303.77 302.666 304.488 304.369 304.497C305.642 304.499 306.736 304.106 307.461 303.39C308.005 302.855 308.345 302.13 308.464 301.252C308.718 299.484 308.585 297.618 308.071 295.689L307.894 295.039L307.909 295.044ZM306.716 302.963C306.152 303.526 305.362 303.765 304.358 303.677C303.474 303.607 301.289 303.26 300.018 301.601C298.335 299.409 299.274 297.894 299.987 297.183C301.495 295.693 304.407 295.087 306.445 295.025L306.763 295.019L306.881 295.409C306.943 295.618 307.008 295.819 307.06 296.033C307.957 299.513 307.834 301.843 306.716 302.963ZM300.588 297.769C299.652 298.699 299.683 299.792 300.7 301.109C301.44 302.074 302.837 302.724 304.445 302.859C305.189 302.921 305.744 302.772 306.121 302.388C306.741 301.776 307.268 300.207 306.244 296.246C306.213 296.119 306.179 296 306.136 295.878C304.16 295.988 301.758 296.606 300.584 297.777L300.588 297.769ZM291.607 288.371C291.118 288.855 290.24 289.319 288.81 288.799C287.401 288.295 286.266 287.485 285.521 286.464C283.925 284.278 284.42 282.998 285.113 282.315C286.478 280.958 289.705 280.858 292.282 281.218L292.574 281.255L292.632 281.543C292.724 281.976 292.785 282.371 292.818 282.746C292.873 283.432 293.091 286.917 291.615 288.374L291.607 288.371ZM285.716 282.893C285.037 283.563 285.206 284.601 286.215 285.985C287.038 287.106 288.242 287.72 289.112 288.033C289.932 288.336 290.561 288.25 291.011 287.796C291.946 286.866 292.114 284.534 291.967 282.821C291.942 282.564 291.912 282.296 291.856 282C289.014 281.649 286.62 281.995 285.716 282.893Z" fill="#FFED1B"/>
<path d="M75.0836 61.3956C75.8323 61.2165 76.4941 61.915 76.2749 62.6529L74.5485 68.4641C74.3293 69.202 73.3934 69.4259 72.864 68.8671L68.6945 64.4664C68.1651 63.9076 68.4391 62.9852 69.1878 62.8061L75.0836 61.3956Z" fill="#2FC1A5"/>
<path d="M325.818 228.921C326.363 229.464 326.116 230.394 325.373 230.594L319.52 232.174C318.777 232.374 318.095 231.695 318.293 230.951L319.852 225.093C320.049 224.349 320.978 224.098 321.524 224.642L325.818 228.921Z" fill="#F77474"/>
<circle cx="322" cy="104" r="6" fill="#FFED1B"/>
<circle cx="45" cy="55" r="6" fill="#FFED1B"/>
<defs>
<clipPath id="clip0_1702_3420">
<rect width="46.05" height="61.62" fill="white" transform="translate(55.6963 319.459) rotate(-149.544)"/>
</clipPath>
<clipPath id="clip1_1702_3420">
<rect width="46.05" height="61.62" fill="white" transform="translate(290 30)"/>
</clipPath>
</defs>
</svg>
