<svg width="56" height="56" viewBox="0 0 56 56" fill="none" xmlns="http://www.w3.org/2000/svg">
<g id="icon_plogging">
<g id="Group 1000002740">
<g id="Group 1000002738">
<g id="Union">
<mask id="path-1-inside-1_500_392" fill="white">
<path fill-rule="evenodd" clip-rule="evenodd" d="M33.9995 31.4734H18.9995V37.4734V41.4734V45.5569C18.9995 47.7199 20.753 49.4734 22.916 49.4734H42.6013C46.1349 49.4734 48.9995 46.6088 48.9995 43.0752C48.9995 39.8683 46.6256 37.1569 43.4469 36.733L33.9995 35.4734V31.4734Z"/>
</mask>
<path fill-rule="evenodd" clip-rule="evenodd" d="M33.9995 31.4734H18.9995V37.4734V41.4734V45.5569C18.9995 47.7199 20.753 49.4734 22.916 49.4734H42.6013C46.1349 49.4734 48.9995 46.6088 48.9995 43.0752C48.9995 39.8683 46.6256 37.1569 43.4469 36.733L33.9995 35.4734V31.4734Z" fill="#BEC8FF"/>
<path d="M18.9995 31.4734V28.6734H16.1995V31.4734H18.9995ZM33.9995 31.4734H36.7995V28.6734H33.9995V31.4734ZM43.4469 36.733L43.8169 33.9576L43.4469 36.733ZM33.9995 35.4734H31.1995V37.9248L33.6295 38.2488L33.9995 35.4734ZM18.9995 34.2734H33.9995V28.6734H18.9995V34.2734ZM21.7995 37.4734V31.4734H16.1995V37.4734H21.7995ZM21.7995 41.4734V37.4734H16.1995V41.4734H21.7995ZM21.7995 45.5569V41.4734H16.1995V45.5569H21.7995ZM22.916 46.6734C22.2994 46.6734 21.7995 46.1735 21.7995 45.5569H16.1995C16.1995 49.2663 19.2066 52.2734 22.916 52.2734V46.6734ZM42.6013 46.6734H22.916V52.2734H42.6013V46.6734ZM46.1995 43.0752C46.1995 45.0624 44.5885 46.6734 42.6013 46.6734V52.2734C47.6813 52.2734 51.7995 48.1552 51.7995 43.0752H46.1995ZM43.0768 39.5085C44.8645 39.7468 46.1995 41.2717 46.1995 43.0752H51.7995C51.7995 38.465 48.3867 34.5669 43.8169 33.9576L43.0768 39.5085ZM33.6295 38.2488L43.0768 39.5085L43.8169 33.9576L34.3696 32.698L33.6295 38.2488ZM31.1995 31.4734V35.4734H36.7995V31.4734H31.1995Z" fill="#7B87DB" mask="url(#path-1-inside-1_500_392)"/>
</g>
<rect id="Rectangle 34624372" x="20.3995" y="26.8734" width="12.2" height="6.2" fill="white" stroke="#7B87DB" stroke-width="2.8"/>
<path id="Line 1058" d="M34.9995 40.1566L36.3412 37.4733" stroke="#7B87DB" stroke-width="2" stroke-linecap="round"/>
<path id="Line 1059" d="M38.9995 40.4734L40.3412 37.4733" stroke="#7B87DB" stroke-width="2" stroke-linecap="round"/>
</g>
<g id="Group 1000002739">
<g id="Union_2">
<mask id="path-6-inside-2_500_392" fill="white">
<path fill-rule="evenodd" clip-rule="evenodd" d="M26.1476 15.6778L11.6587 11.7955L10.1058 17.5911L9.0705 21.4548L8.0136 25.3992C7.45378 27.4885 8.69366 29.636 10.7829 30.1958L29.7975 35.2908C33.2107 36.2054 36.7191 34.1798 37.6337 30.7665C38.4637 27.669 36.8724 24.4355 33.9117 23.2034L25.1123 19.5415L26.1476 15.6778Z"/>
</mask>
<path fill-rule="evenodd" clip-rule="evenodd" d="M26.1476 15.6778L11.6587 11.7955L10.1058 17.5911L9.0705 21.4548L8.0136 25.3992C7.45378 27.4885 8.69366 29.636 10.7829 30.1958L29.7975 35.2908C33.2107 36.2054 36.7191 34.1798 37.6337 30.7665C38.4637 27.669 36.8724 24.4355 33.9117 23.2034L25.1123 19.5415L26.1476 15.6778Z" fill="#BEC8FF"/>
<path d="M11.6587 11.7955L12.3834 9.09094L9.67879 8.36625L8.9541 11.0708L11.6587 11.7955ZM26.1476 15.6778L28.8522 16.4025L29.5769 13.6979L26.8723 12.9732L26.1476 15.6778ZM10.1058 17.5911L7.40118 16.8664L10.1058 17.5911ZM9.0705 21.4548L6.36591 20.7301L9.0705 21.4548ZM8.0136 25.3992L10.7182 26.1239L8.0136 25.3992ZM10.7829 30.1958L11.5076 27.4913L10.7829 30.1958ZM29.7975 35.2908L29.0728 37.9954L29.7975 35.2908ZM33.9117 23.2034L34.9875 20.6183L33.9117 23.2034ZM25.1123 19.5415L22.4077 18.8168L21.7732 21.1847L24.0365 22.1266L25.1123 19.5415ZM10.934 14.5001L25.4229 18.3824L26.8723 12.9732L12.3834 9.09094L10.934 14.5001ZM12.8104 18.3158L14.3633 12.5202L8.9541 11.0708L7.40118 16.8664L12.8104 18.3158ZM11.7751 22.1795L12.8104 18.3158L7.40118 16.8664L6.36591 20.7301L11.7751 22.1795ZM10.7182 26.1239L11.7751 22.1795L6.36591 20.7301L5.30901 24.6745L10.7182 26.1239ZM11.5076 27.4913C10.9121 27.3317 10.5586 26.7195 10.7182 26.1239L5.30901 24.6745C4.34895 28.2575 6.47526 31.9404 10.0583 32.9004L11.5076 27.4913ZM30.5222 32.5862L11.5076 27.4913L10.0583 32.9004L29.0728 37.9954L30.5222 32.5862ZM34.9291 30.0419C34.4148 31.9614 32.4417 33.1005 30.5222 32.5862L29.0728 37.9954C33.9798 39.3102 39.0235 36.3982 40.3383 31.4912L34.9291 30.0419ZM32.836 25.7885C34.501 26.4814 35.3959 28.2999 34.9291 30.0419L40.3383 31.4912C41.5315 27.0381 39.2439 22.3896 34.9875 20.6183L32.836 25.7885ZM24.0365 22.1266L32.836 25.7885L34.9875 20.6183L26.1881 16.9564L24.0365 22.1266ZM23.443 14.9531L22.4077 18.8168L27.8169 20.2662L28.8522 16.4025L23.443 14.9531Z" fill="#7B87DB" mask="url(#path-6-inside-2_500_392)"/>
</g>
<rect id="Rectangle 34624372_2" x="14.2014" y="7.71464" width="12.2" height="6.2" transform="rotate(15 14.2014 7.71464)" fill="white" stroke="#7B87DB" stroke-width="2.8"/>
<path id="Line 1058_2" d="M24.8657 24.324L26.8561 22.0794" stroke="#7B87DB" stroke-width="2" stroke-linecap="round"/>
<path id="Line 1059_2" d="M28.6475 25.6653L30.7199 23.1147" stroke="#7B87DB" stroke-width="2" stroke-linecap="round"/>
</g>
</g>
</g>
</svg>
