<svg width="56" height="56" viewBox="0 0 56 56" fill="none" xmlns="http://www.w3.org/2000/svg">
<g id="icon_location-pin">
<g id="Group">
<path id="Vector" d="M27.5 46L39.8746 33.6982C42.322 31.2652 43.9886 28.1653 44.6638 24.7907C45.339 21.416 44.9924 17.9181 43.6678 14.7393C42.3433 11.5604 40.1002 8.84343 37.2224 6.93186C34.3446 5.02029 30.9611 4 27.5 4C24.0389 4 20.6554 5.02029 17.7776 6.93186C14.8998 8.84343 12.6567 11.5604 11.3322 14.7393C10.0076 17.9181 9.66103 21.416 10.3362 24.7907C11.0114 28.1653 12.678 31.2652 15.1254 33.6982L27.5 46Z" fill="#BEC8FF" stroke="#7B87DB" stroke-width="3.2" stroke-linejoin="round"/>
<path id="Vector_2" d="M27 21.9762H27.0176V21.9938H27V21.9762Z" fill="#BEC8FF" stroke="#7B87DB" stroke-width="8.6" stroke-linejoin="round"/>
<path id="Line 1054" d="M22 52L33 52" stroke="#7B87DB" stroke-width="3.2" stroke-linecap="round"/>
</g>
</g>
</svg>
