<svg width="56" height="56" viewBox="0 0 56 56" fill="none" xmlns="http://www.w3.org/2000/svg">
<g id="icon_eco-friendly products">
<g id="Group 1000002722">
<path id="Rectangle 34624375" d="M12.7251 13.0241C12.7112 12.7941 12.894 12.6 13.1244 12.6H41.8756C42.106 12.6 42.2888 12.7941 42.2749 13.0241L40.0414 50.0241C40.0286 50.2353 39.8536 50.4 39.6421 50.4H15.3579C15.1464 50.4 14.9714 50.2353 14.9586 50.0241L12.7251 13.0241Z" fill="#BEC8FF" stroke="#7B87DB" stroke-width="3.2"/>
<path id="Line 1054" d="M12 8L42 8" stroke="#7B87DB" stroke-width="3.2" stroke-linecap="round"/>
<path id="Line 1055" d="M19 7L19 4" stroke="#7B87DB" stroke-width="3.2" stroke-linecap="round"/>
<path id="Line 1056" d="M35 7L35 4" stroke="#7B87DB" stroke-width="3.2" stroke-linecap="round"/>
<path id="Line 1057" d="M35 4L19 4" stroke="#7B87DB" stroke-width="3.2" stroke-linecap="round"/>
<path id="Vector" d="M27.5 38C26.0413 38 24.6424 37.41 23.6109 36.3598C22.5795 35.3096 22 33.8852 22 32.4C22 29.9486 23.8631 27.9879 25.5014 26.191L27.5 24L29.4986 26.191C31.1369 27.9886 33 29.9493 33 32.4C33 33.8852 32.4205 35.3096 31.3891 36.3598C30.3576 37.41 28.9587 38 27.5 38Z" fill="white" stroke="#7B87DB" stroke-width="2.8" stroke-linecap="round" stroke-linejoin="round"/>
</g>
</g>
</svg>
