<svg width="20" height="20" viewBox="0 0 20 20" fill="none" xmlns="http://www.w3.org/2000/svg">
<g id="icon_settings">
<g id="Group">
<path id="Vector" d="M10.1803 12.0997C11.0639 12.0997 11.7801 11.3834 11.7801 10.4999C11.7801 9.61639 11.0639 8.90015 10.1803 8.90015C9.29681 8.90015 8.58057 9.61639 8.58057 10.4999C8.58057 11.3834 9.29681 12.0997 10.1803 12.0997Z" stroke="#FDFDFD" stroke-width="1.6"/>
<path id="Vector_2" d="M4.90032 5.60465L5.30027 4.91114C5.14325 4.82036 4.96003 4.78564 4.78068 4.81267C4.60133 4.8397 4.43649 4.92689 4.31321 5.05992L4.90032 5.60465ZM3.30135 8.37545L2.53666 8.13948C2.48344 8.31259 2.49053 8.49864 2.55679 8.6672C2.62305 8.83575 2.74455 8.97683 2.90141 9.06735L3.30135 8.37545ZM3.29975 12.6236L2.89981 11.9309C2.74276 12.0217 2.62119 12.1631 2.55506 12.3319C2.48893 12.5008 2.48216 12.6872 2.53586 12.8604L3.29975 12.6236ZM4.89952 15.3944L4.31241 15.9384C4.43569 16.0714 4.60053 16.1586 4.77988 16.1856C4.95923 16.2127 5.14245 16.1779 5.29947 16.0871L4.89952 15.3944ZM8.579 17.5181H7.78071C7.78072 17.6994 7.8423 17.8753 7.95537 18.017C8.06843 18.1587 8.22627 18.2578 8.40302 18.298L8.579 17.5181ZM11.7793 17.5197L11.9577 18.2996C12.1343 18.2592 12.292 18.1601 12.4049 18.0184C12.5178 17.8767 12.5793 17.7009 12.5792 17.5197H11.7793ZM15.4596 15.3952L15.0597 16.0879C15.2166 16.1785 15.3997 16.2131 15.5788 16.1861C15.758 16.1591 15.9227 16.072 16.0459 15.9392L15.4596 15.3952ZM17.0578 12.6228L17.8225 12.8588C17.8757 12.6857 17.8686 12.4997 17.8023 12.3311C17.7361 12.1625 17.6146 12.0215 17.4577 11.9309L17.0578 12.6228ZM17.0594 8.37465L17.4593 9.06735C17.6164 8.97664 17.7379 8.83524 17.8041 8.66635C17.8702 8.49747 17.877 8.31112 17.8233 8.13788L17.0594 8.37465ZM15.4596 5.60305L16.0467 5.05992C15.9235 4.92676 15.7588 4.83942 15.5794 4.81224C15.4 4.78506 15.2168 4.81966 15.0597 4.91034L15.4596 5.60305ZM11.7801 3.48095H12.58C12.5801 3.29978 12.5186 3.12397 12.4057 2.98229C12.2928 2.84061 12.1351 2.74146 11.9585 2.70106L11.7801 3.48095ZM8.5806 3.47935L8.40223 2.69946C8.22562 2.73986 8.06796 2.83901 7.95506 2.98069C7.84215 3.12237 7.78068 3.29818 7.78071 3.47935H8.5806ZM4.06604 8.61142C4.34854 7.69393 4.83409 6.85187 5.48664 6.14777L4.31321 5.05992C3.49757 5.94009 2.89064 6.99345 2.53746 8.14028L4.06604 8.61142ZM4.63876 13.6995C4.39902 13.285 4.20639 12.845 4.06444 12.3877L2.53666 12.8612C2.71024 13.4219 2.9486 13.9715 3.25336 14.4994L4.63876 13.6995ZM5.48664 14.8521C5.16224 14.5007 4.87732 14.114 4.63876 13.6995L3.25336 14.4994C3.55732 15.0273 3.91487 15.508 4.31321 15.9392L5.48664 14.8521ZM11.6026 16.7407C10.6664 16.9538 9.69415 16.9532 8.75817 16.7391L8.40223 18.2988C9.57249 18.5665 10.788 18.567 11.9585 18.3004L11.6026 16.7407ZM16.2947 12.3885C16.0122 13.306 15.5267 14.148 14.8741 14.8521L16.0475 15.94C16.8632 15.0598 17.4701 14.0072 17.8233 12.8604L16.2947 12.3885ZM15.722 7.3004C15.9667 7.72434 16.1579 8.16428 16.2963 8.61222L17.8241 8.13868C17.6473 7.56749 17.4069 7.01798 17.1074 6.50052L15.722 7.3004ZM14.8741 6.14777C15.1917 6.49172 15.4772 6.87566 15.722 7.3004L17.1074 6.50052C16.8089 5.98259 16.4534 5.49966 16.0475 5.06072L14.8741 6.14777ZM8.75817 4.25924C9.69439 4.0461 10.6666 4.04665 11.6026 4.26084L11.9585 2.70106C10.7885 2.43352 9.57247 2.43297 8.40223 2.69946L8.75817 4.25924ZM9.38049 4.95834V3.47855H7.78071V4.95834H9.38049ZM6.58088 5.65104L5.30027 4.91114L4.50038 6.29655L5.781 7.03644L6.58088 5.65104ZM4.18123 11.1926L2.90061 11.9317L3.7005 13.3171L4.98111 12.578L4.18123 11.1926ZM4.98111 8.42184L3.7013 7.68355L2.90141 9.06895L4.18123 9.80725L4.98111 8.42184ZM9.38049 17.5189V16.0416H7.78071V17.5181L9.38049 17.5189ZM5.781 13.9635L4.50038 14.7033L5.30027 16.0887L6.58008 15.3489L5.781 13.9635ZM15.8604 14.7033L14.5797 13.9635L13.7799 15.3489L15.0605 16.0887L15.8604 14.7033ZM12.58 17.5205V16.0416H10.9803V17.5213L12.58 17.5205ZM16.6602 7.68195L15.3796 8.42184L16.1795 9.80725L17.4593 9.06735L16.6602 7.68195ZM17.4585 11.9309L16.1795 11.1926L15.3796 12.578L16.6594 13.3163L17.4585 11.9309ZM12.58 4.95834V3.48095H10.9803V4.95834H12.58ZM15.0605 4.91114L13.7799 5.65104L14.5797 7.03644L15.8604 6.29655L15.0605 4.91114ZM10.9803 4.95834C10.9803 6.80607 12.98 7.96031 14.5797 7.03644L13.7799 5.65104C13.6583 5.72124 13.5203 5.7582 13.3799 5.7582C13.2395 5.7582 13.1016 5.72125 12.98 5.65104C12.8584 5.58084 12.7574 5.47987 12.6872 5.35827C12.617 5.23668 12.58 5.09875 12.58 4.95834H10.9803ZM15.3796 8.42184C13.7799 9.34571 13.7799 11.6542 15.3796 12.578L16.1795 11.1926C16.0579 11.1224 15.957 11.0215 15.8868 10.8999C15.8166 10.7783 15.7796 10.6403 15.7796 10.4999C15.7796 10.3595 15.8166 10.2216 15.8868 10.1C15.957 9.97843 16.0579 9.87745 16.1795 9.80725L15.3796 8.42184ZM14.5797 13.9635C12.98 13.0404 10.9803 14.1946 10.9803 16.0416H12.58C12.58 15.9011 12.617 15.7632 12.6872 15.6416C12.7574 15.52 12.8584 15.4191 12.98 15.3488C13.1016 15.2786 13.2395 15.2417 13.3799 15.2417C13.5203 15.2417 13.6583 15.2787 13.7799 15.3489L14.5797 13.9635ZM9.38049 16.0416C9.38049 14.1938 7.38077 13.0396 5.781 13.9635L6.58008 15.3489C6.70168 15.2787 6.84042 15.2417 6.98082 15.2417C7.12123 15.2417 7.25916 15.2786 7.38076 15.3488C7.50236 15.4191 7.60333 15.52 7.67354 15.6416C7.74375 15.7632 7.78071 15.9011 7.78071 16.0416H9.38049ZM4.98111 12.578C6.58088 11.6542 6.58088 9.34571 4.98111 8.42184L4.18123 9.80725C4.30282 9.87745 4.40378 9.97843 4.47398 10.1C4.54418 10.2216 4.58114 10.3595 4.58114 10.4999C4.58114 10.6403 4.54418 10.7783 4.47398 10.8999C4.40378 11.0215 4.30282 11.1224 4.18123 11.1926L4.98111 12.578ZM7.78071 4.95834C7.78071 5.09875 7.74375 5.23668 7.67354 5.35827C7.60333 5.47987 7.50236 5.58084 7.38076 5.65104C7.25916 5.72125 7.12123 5.7582 6.98082 5.7582C6.84042 5.7582 6.70248 5.72124 6.58088 5.65104L5.781 7.03644C7.38077 7.95951 9.38049 6.80527 9.38049 4.95834H7.78071Z" fill="#FDFDFD"/>
</g>
</g>
</svg>
