<svg width="56" height="56" viewBox="0 0 56 56" fill="none" xmlns="http://www.w3.org/2000/svg">
<g id="icon_vegan">
<path id="Vector" d="M24.3475 10.7941C25.7293 8.36042 29.2739 8.36042 30.6557 10.7941L34.843 18.1777L32.2706 17.7285C32.0108 17.683 31.7446 17.6886 31.487 17.7448C31.2294 17.801 30.9855 17.9068 30.7693 18.0561C30.5531 18.2055 30.3688 18.3954 30.2269 18.6151C30.085 18.8348 29.9883 19.08 29.9423 19.3366C29.8963 19.5933 29.9019 19.8564 29.9588 20.1109C30.0157 20.3653 30.1228 20.6063 30.274 20.8199C30.4251 21.0335 30.6174 21.2156 30.8397 21.3558C31.0621 21.496 31.3103 21.5915 31.57 21.637L38.3989 22.8276C38.8733 22.9108 39.3622 22.8226 39.7763 22.5793C40.1905 22.336 40.5022 21.9536 40.6548 21.5021L42.6633 15.5488C42.8318 15.0494 42.7927 14.5044 42.5545 14.0335C42.3163 13.5627 41.8985 13.2046 41.3931 13.0381C40.8877 12.8716 40.3361 12.9102 39.8595 13.1456C39.3829 13.3809 39.0205 13.7937 38.852 14.293L38.2527 16.0711L34.1602 8.85414C31.2454 3.71529 23.7578 3.71529 20.8431 8.85414L17.3001 15.1011C17.1628 15.3288 17.0731 15.5813 17.0363 15.8438C16.9994 16.1062 17.0161 16.3733 17.0854 16.6293C17.1547 16.8853 17.2752 17.125 17.4397 17.3342C17.6043 17.5435 17.8096 17.718 18.0436 17.8476C18.2775 17.9772 18.5354 18.0591 18.8019 18.0886C19.0684 18.1182 19.3383 18.0946 19.5954 18.0195C19.8526 17.9443 20.092 17.819 20.2993 17.651C20.5067 17.4829 20.6779 17.2755 20.8029 17.0411L24.3475 10.7941ZM43.7061 25.6884C43.4382 25.244 43.0052 24.9205 42.4995 24.7868C41.9937 24.6532 41.4551 24.7199 40.9984 24.9728C40.5417 25.2258 40.2031 25.6449 40.0545 26.1409C39.906 26.6369 39.9594 27.1706 40.2033 27.6284L45.5105 36.9885C46.8602 39.3698 45.1185 42.3067 42.3564 42.3067H32.1902L33.4628 40.7986C33.7989 40.3938 33.9595 39.8742 33.9096 39.353C33.8596 38.8317 33.6033 38.3511 33.1963 38.0158C32.7893 37.6805 32.2647 37.5177 31.7368 37.5629C31.2088 37.608 30.7204 37.8575 30.3778 38.2569L26.3608 43.0195C26.0602 43.3761 25.8956 43.8255 25.8956 44.2896C25.8956 44.7536 26.0602 45.203 26.3608 45.5596L30.3778 50.3222C30.723 50.7121 31.2089 50.9532 31.7316 50.9939C32.2543 51.0346 32.7724 50.8717 33.1752 50.5401C33.578 50.2084 33.8336 49.7343 33.8873 49.2189C33.9411 48.7036 33.7887 48.188 33.4628 47.7821L32.1934 46.2756H42.3564C48.1891 46.2756 51.8654 40.0762 49.015 35.0485L43.7061 25.6884ZM20.6695 42.3067H12.6436C9.87991 42.3067 8.13975 39.3698 9.48946 36.9885L15.1904 26.9394L16.4903 29.3492C16.7438 29.8083 17.1705 30.15 17.6775 30.2999C18.1846 30.4498 18.7311 30.3959 19.1982 30.1499C19.6653 29.9039 20.0152 29.4857 20.1719 28.9861C20.3285 28.4866 20.2793 27.9462 20.0348 27.4823L16.8213 21.529C16.6235 21.1625 16.3143 20.8665 15.9372 20.6828C15.5602 20.4991 15.1343 20.437 14.7196 20.5051L7.489 21.6957C7.22653 21.7359 6.97475 21.8272 6.74821 21.9642C6.52168 22.1012 6.3249 22.2812 6.16926 22.4939C6.01362 22.7065 5.90221 22.9475 5.84148 23.203C5.78076 23.4585 5.77192 23.7233 5.81548 23.9822C5.85904 24.241 5.95414 24.4888 6.09526 24.7111C6.23639 24.9334 6.42074 25.1259 6.63765 25.2773C6.85456 25.4288 7.09971 25.5362 7.35893 25.5934C7.61814 25.6506 7.88627 25.6565 8.14778 25.6106L11.6667 25.0311L5.98504 35.0485C3.13459 40.0746 6.81093 46.2756 12.6436 46.2756H20.6695C21.2022 46.2756 21.7131 46.0665 22.0897 45.6943C22.4664 45.3222 22.678 44.8174 22.678 44.2911C22.678 43.7648 22.4664 43.2601 22.0897 42.8879C21.7131 42.5158 21.2022 42.3067 20.6695 42.3067Z" fill="#7B87DB"/>
</g>
</svg>
