<svg width="35" height="35" viewBox="0 0 35 35" fill="none" xmlns="http://www.w3.org/2000/svg">
<g id="icon-point">
<g id="Group 1000002655">
<path id="P" d="M13.45 23.9804V12.3696C13.45 11.4652 14.1128 10.75 14.951 10.75H19.0254C22.281 10.75 24.25 12.8324 24.25 15.8402V15.8823C24.25 19.2898 21.7936 21.0567 18.733 21.0567H16.4521V23.9804C16.4521 24.8848 15.7893 25.6 14.951 25.6C14.1128 25.6 13.45 24.8848 13.45 23.9804ZM16.4521 18.175H18.8305C20.3315 18.175 21.2088 17.2074 21.2088 15.9454V15.9033C21.2088 14.452 20.2731 13.6737 18.772 13.6737H16.4521V18.175Z" fill="#7B87DB"/>
<circle id="Ellipse 1678" cx="17.5" cy="17.5" r="12" stroke="#7B87DB" stroke-width="3"/>
</g>
</g>
</svg>
