<svg width="56" height="56" viewBox="0 0 56 56" fill="none" xmlns="http://www.w3.org/2000/svg">
<g id="icon_Multi-use">
<g id="Group 1000002717">
<circle id="Ellipse 1701" cx="8.5" cy="27.5002" r="2.9" stroke="#7B87DB" stroke-width="3.2"/>
<circle id="Ellipse 1702" cx="47.5" cy="27.5002" r="2.9" stroke="#7B87DB" stroke-width="3.2"/>
<path id="Ellipse 1703" d="M28 7.6C29.3441 7.6 30.4994 8.01062 31.2826 8.59802C32.0653 9.18505 32.4 9.87388 32.4 10.5C32.4 11.1261 32.0653 11.815 31.2826 12.402C30.4994 12.9894 29.3441 13.4 28 13.4C26.6559 13.4 25.5006 12.9894 24.7174 12.402C23.9347 11.815 23.6 11.1261 23.6 10.5C23.6 9.87388 23.9347 9.18505 24.7174 8.59802C25.5006 8.01062 26.6559 7.6 28 7.6Z" stroke="#7B87DB" stroke-width="3.2"/>
<rect id="Rectangle 34624370" x="9.6" y="11.6002" width="36.8" height="36.8" rx="10.4" fill="white" stroke="#7B87DB" stroke-width="3.2" stroke-linejoin="round"/>
<path id="Rectangle 34624372" d="M9.6 24.6H46.4V38C46.4 43.7438 41.7438 48.4 36 48.4H20C14.2562 48.4 9.6 43.7438 9.6 38V24.6Z" fill="#BEC8FF" stroke="#7B87DB" stroke-width="3.2" stroke-linejoin="round"/>
</g>
</g>
</svg>
