<svg width="28" height="28" viewBox="0 0 28 28" fill="none" xmlns="http://www.w3.org/2000/svg">
<circle cx="14" cy="14" r="13.2" fill="#A9B5FF" fill-opacity="0.3" stroke="#BEC8FF" stroke-width="1.6"/>
<path fill-rule="evenodd" clip-rule="evenodd" d="M21.6485 9.33887C21.8736 9.55566 22 9.84966 22 10.1562C22 10.4628 21.8736 10.7568 21.6485 10.9736L12.6492 19.6387C12.5302 19.7533 12.389 19.8441 12.2336 19.9061C12.0782 19.9681 11.9117 20 11.7435 20C11.5753 20 11.4087 19.9681 11.2533 19.9061C11.0979 19.8441 10.9567 19.7533 10.8378 19.6387L6.36655 15.3343C6.25187 15.2276 6.1604 15.1001 6.09748 14.959C6.03455 14.818 6.00143 14.6663 6.00005 14.5128C5.99866 14.3593 6.02904 14.207 6.08941 14.065C6.14978 13.9229 6.23893 13.7938 6.35166 13.6853C6.4644 13.5767 6.59845 13.4909 6.74601 13.4327C6.89356 13.3746 7.05166 13.3454 7.21109 13.3467C7.37051 13.348 7.52806 13.3799 7.67454 13.4405C7.82103 13.5011 7.95351 13.5892 8.06427 13.6996L11.7431 17.2418L19.9499 9.33887C20.0614 9.23144 20.1938 9.14622 20.3396 9.08807C20.4853 9.02993 20.6415 9 20.7992 9C20.9569 9 21.1131 9.02993 21.2589 9.08807C21.4046 9.14622 21.537 9.23144 21.6485 9.33887Z" fill="#A9B5FF"/>
</svg>
