<svg width="56" height="56" viewBox="0 0 56 56" fill="none" xmlns="http://www.w3.org/2000/svg">
<g id="icon_Tumbler">
<g id="Group 1000002722">
<path id="Rectangle 34624375" d="M12.8401 15.0447C12.8134 14.8076 12.999 14.6 13.2376 14.6H41.7624C42.001 14.6 42.1866 14.8076 42.1599 15.0447L40.1349 33.0447C40.1121 33.2471 39.941 33.4 39.7374 33.4H15.2626C15.059 33.4 14.8879 33.247 14.8651 33.0447L12.8401 15.0447Z" fill="#BEC8FF" stroke="#7B87DB" stroke-width="3.2"/>
<path id="Rectangle 34624376" d="M16.9081 34.0563C16.8739 33.8154 17.0609 33.6 17.3042 33.6H37.6958C37.9391 33.6 38.1261 33.8154 38.0919 34.0563L35.535 52.0563C35.507 52.2535 35.3382 52.4 35.139 52.4H19.861C19.6618 52.4 19.493 52.2535 19.465 52.0563L16.9081 34.0563Z" fill="#BEC8FF" stroke="#7B87DB" stroke-width="3.2"/>
<path id="Line 1054" d="M12 10L42 10" stroke="#7B87DB" stroke-width="3.2" stroke-linecap="round"/>
<path id="Line 1055" d="M34 8.92822L38 2.00002" stroke="#7B87DB" stroke-width="3.2" stroke-linecap="round"/>
</g>
</g>
</svg>
