<svg width="36" height="36" viewBox="0 0 36 36" fill="none" xmlns="http://www.w3.org/2000/svg">
<g id="icon-learn-more-1">
<g id="Group">
<path id="Vector" d="M18 16.5H18.015V16.515H18V16.5Z" stroke="#D5D5D5" stroke-width="4" stroke-linejoin="round"/>
<path id="Vector_2" d="M18 33L26.25 24.75C27.8816 23.1183 28.9927 21.0395 29.4429 18.7763C29.893 16.5131 29.6619 14.1673 28.7789 12.0355C27.8958 9.90365 26.4004 8.08154 24.4818 6.79958C22.5632 5.51762 20.3075 4.83337 18 4.83337C15.6925 4.83337 13.4368 5.51762 11.5182 6.79958C9.59961 8.08154 8.10422 9.90365 7.22116 12.0355C6.3381 14.1673 6.10702 16.5131 6.55715 18.7763C7.00728 21.0395 8.11841 23.1183 9.75001 24.75L18 33Z" stroke="#D5D5D5" stroke-width="3" stroke-linejoin="round"/>
</g>
</g>
</svg>
