<svg width="16" height="11" viewBox="0 0 16 11" fill="none" xmlns="http://www.w3.org/2000/svg">
<path fill-rule="evenodd" clip-rule="evenodd" d="M15.6485 0.338868C15.8736 0.555664 16 0.849663 16 1.15621C16 1.46276 15.8736 1.75676 15.6485 1.97356L6.64917 10.6387C6.53024 10.7533 6.38904 10.8441 6.23364 10.9061C6.07824 10.9681 5.91168 11 5.74347 11C5.57526 11 5.4087 10.9681 5.2533 10.9061C5.0979 10.8441 4.95671 10.7533 4.83778 10.6387L0.366545 6.33427C0.251871 6.22763 0.160402 6.10006 0.0974773 5.95901C0.0345522 5.81797 0.00143067 5.66627 4.53326e-05 5.51276C-0.00134 5.35926 0.0290387 5.20703 0.0894086 5.06495C0.149779 4.92288 0.238931 4.7938 0.351663 4.68525C0.464396 4.5767 0.598451 4.49086 0.746007 4.43273C0.893563 4.37461 1.05166 4.34535 1.21109 4.34669C1.37051 4.34802 1.52806 4.37991 1.67454 4.4405C1.82103 4.50109 1.95351 4.58916 2.06427 4.69958L5.74307 8.24179L13.9499 0.338868C14.0614 0.231438 14.1938 0.146216 14.3396 0.0880717C14.4853 0.0299272 14.6415 0 14.7992 0C14.9569 0 15.1131 0.0299272 15.2589 0.0880717C15.4046 0.146216 15.537 0.231438 15.6485 0.338868Z" fill="#A9B5FF"/>
</svg>
