<svg width="35" height="35" viewBox="0 0 35 35" fill="none" xmlns="http://www.w3.org/2000/svg">
<g id="icon-point">
<g id="Group 1000002655">
<path id="P" d="M13.4502 23.9804V12.3696C13.4502 11.4652 14.113 10.75 14.9513 10.75H19.0256C22.2812 10.75 24.2502 12.8324 24.2502 15.8402V15.8823C24.2502 19.2898 21.7939 21.0567 18.7332 21.0567H16.4524V23.9804C16.4524 24.8848 15.7895 25.6 14.9513 25.6C14.113 25.6 13.4502 24.8848 13.4502 23.9804ZM16.4524 18.175H18.8307C20.3318 18.175 21.209 17.2074 21.209 15.9454V15.9033C21.209 14.452 20.2733 13.6737 18.7722 13.6737H16.4524V18.175Z" fill="#FB7A8E"/>
<circle id="Ellipse 1678" cx="17.5" cy="17.5" r="12" stroke="#FB7A8E" stroke-width="3"/>
</g>
</g>
</svg>
