<svg width="22" height="27" viewBox="0 0 22 27" fill="none" xmlns="http://www.w3.org/2000/svg">
<g id="Group 1000002718">
<path id="Vector" d="M17.7913 13.8954C17.7615 10.5857 20.4945 8.99666 20.6152 8.92301C19.0795 6.67422 16.6849 6.3608 15.8356 6.32319C13.7968 6.1179 11.8567 7.52516 10.8256 7.52516C9.7944 7.52516 8.19597 6.35767 6.50977 6.39058C4.28449 6.42035 2.24099 7.68343 1.09545 9.66581C-1.21132 13.6682 0.503083 19.6012 2.755 22.8467C3.85197 24.4357 5.1605 26.2206 6.8796 26.1564C8.53916 26.0921 9.166 25.0861 11.1687 25.0861C13.1715 25.0861 13.7341 26.1564 15.4877 26.1297C17.2695 26.0921 18.3993 24.5031 19.4869 22.9141C20.7468 21.0696 21.2703 19.2847 21.3 19.1906C21.2609 19.1765 17.8242 17.857 17.7897 13.8954H17.7913Z" fill="black"/>
<path id="Vector_2" d="M14.496 4.17475C15.4112 3.06994 16.0271 1.53105 15.8578 0C14.5431 0.0501471 12.9493 0.879142 12.0075 1.97924C11.1597 2.96181 10.4153 4.53205 10.6175 6.03019C12.0827 6.14146 13.5856 5.28269 14.496 4.17475Z" fill="black"/>
</g>
</svg>
