<svg width="40" height="40" viewBox="0 0 40 40" fill="none" xmlns="http://www.w3.org/2000/svg">
<g id="iconamoon:heart-bold">
<path id="Vector" d="M31.6674 22.4488L22.3728 32.0104C21.7565 32.644 20.9209 33 20.0495 33C19.1782 33 18.3425 32.644 17.7263 32.0104L8.43166 22.4505C7.66333 21.6672 7.053 20.7354 6.63571 19.7088C6.21842 18.6822 6.00239 17.5809 6.00002 16.4681C5.99765 15.3554 6.20899 14.2531 6.6219 13.2246C7.03482 12.1961 7.64117 11.2617 8.40616 10.4748C9.17115 9.68802 10.0797 9.06435 11.0797 8.63965C12.0796 8.21495 13.1513 7.99758 14.2331 8.00002C15.315 8.00246 16.3857 8.22465 17.3839 8.65385C18.382 9.08305 19.2879 9.7108 20.0495 10.5011C21.5965 8.94949 23.6756 8.08728 25.8363 8.10121C27.997 8.11513 30.0654 9.00407 31.5934 10.5755C33.1214 12.1468 33.986 14.2741 33.9998 16.4965C34.0137 18.7189 33.1757 20.8574 31.6674 22.4488Z" stroke="#7B87DB" stroke-width="3.2" stroke-linecap="round" stroke-linejoin="round"/>
</g>
</svg>
