<svg width="166" height="166" viewBox="0 0 166 166" fill="none" xmlns="http://www.w3.org/2000/svg">
<g filter="url(#filter0_d_815_2564)">
<rect x="8" y="8" width="150" height="150" rx="8" fill="white"/>
</g>
<path fill-rule="evenodd" clip-rule="evenodd" d="M44.8329 34C43.2683 34 42 35.2683 42 36.8329V70V74V106.601C42 108.478 43.522 110 45.3994 110H82C93.0457 110 102 101.046 102 90C102 79.5898 94.0464 71.0373 83.8844 70.0876C88.8079 66.4445 92 60.595 92 54C92 42.9543 83.0457 34 72 34H44.8329Z" fill="url(#paint0_linear_815_2564)" fill-opacity="0.5"/>
<circle cx="93.5" cy="101.5" r="33.5" fill="url(#paint1_linear_815_2564)" fill-opacity="0.5"/>
<defs>
<filter id="filter0_d_815_2564" x="0" y="0" width="166" height="166" filterUnits="userSpaceOnUse" color-interpolation-filters="sRGB">
<feFlood flood-opacity="0" result="BackgroundImageFix"/>
<feColorMatrix in="SourceAlpha" type="matrix" values="0 0 0 0 0 0 0 0 0 0 0 0 0 0 0 0 0 0 127 0" result="hardAlpha"/>
<feOffset/>
<feGaussianBlur stdDeviation="4"/>
<feComposite in2="hardAlpha" operator="out"/>
<feColorMatrix type="matrix" values="0 0 0 0 0 0 0 0 0 0 0 0 0 0 0 0 0 0 0.2 0"/>
<feBlend mode="normal" in2="BackgroundImageFix" result="effect1_dropShadow_815_2564"/>
<feBlend mode="normal" in="SourceGraphic" in2="effect1_dropShadow_815_2564" result="shape"/>
</filter>
<linearGradient id="paint0_linear_815_2564" x1="102" y1="110" x2="45.512" y2="54.6648" gradientUnits="userSpaceOnUse">
<stop stop-color="#A9B5FF"/>
<stop offset="1" stop-color="#A9DEE2"/>
</linearGradient>
<linearGradient id="paint1_linear_815_2564" x1="93.5" y1="68" x2="93.5" y2="135" gradientUnits="userSpaceOnUse">
<stop stop-color="#A9B5FF"/>
<stop offset="1" stop-color="#A9DEE2"/>
</linearGradient>
</defs>
</svg>
