<svg width="268" height="268" viewBox="0 0 268 268" fill="none" xmlns="http://www.w3.org/2000/svg">
<g filter="url(#filter0_d_640_1342)">
<mask id="mask0_640_1342" style="mask-type:luminance" maskUnits="userSpaceOnUse" x="4" y="4" width="260" height="260">
<path d="M134 264C205.797 264 264 205.797 264 134C264 62.203 205.797 4 134 4C62.203 4 4 62.203 4 134C4 205.797 62.203 264 134 264Z" fill="white"/>
</mask>
<g mask="url(#mask0_640_1342)">
<path d="M126 295C214.918 295 287 222.918 287 134C287 45.0822 214.918 -27 126 -27C37.0822 -27 -35 45.0822 -35 134C-35 222.918 37.0822 295 126 295Z" fill="white"/>
<path d="M59.954 56.4235L69.8461 57.9708L68.2491 68.1805L58.357 66.6332C55.5437 66.1932 53.6106 63.5432 54.0506 60.7299C54.4907 57.9165 57.1406 55.9834 59.954 56.4235Z" fill="#7BB7C2"/>
<path d="M69.4022 69.7461L58.1498 67.9779C56.4275 67.7023 54.9118 66.7837 53.8784 65.36C52.845 63.9591 52.4317 62.2139 52.7073 60.4916C52.9828 58.7692 53.9014 57.2536 55.3252 56.2202C56.726 55.1868 58.4713 54.7735 60.1936 55.0491L71.446 56.8173L69.4252 69.7461H69.4022ZM57.5986 58.0574C57.369 58.1722 57.1393 58.287 56.9097 58.4478C56.083 59.0448 55.5548 59.9175 55.3941 60.9279C55.2333 61.9383 55.4859 62.9258 56.083 63.7525C56.6801 64.5792 57.5527 65.1073 58.5631 65.2681L67.1058 66.6L68.2769 59.1137L59.7573 57.7818C59.0224 57.667 58.2875 57.7818 57.6216 58.0574H57.5986Z" fill="#333333"/>
<path d="M119.944 38.7691L114.572 47.2181L105.852 41.6734L111.224 33.2243C112.752 30.8214 115.954 30.1087 118.357 31.6365C120.76 33.1644 121.472 36.3662 119.944 38.7691Z" fill="#7BB7C2"/>
<path d="M114.985 49.1248L103.939 42.0977L110.048 32.4758C110.989 31.0061 112.436 29.9727 114.158 29.6053C115.858 29.2149 117.626 29.5364 119.096 30.4779C122.15 32.4069 123.046 36.4715 121.117 39.5028L115.008 49.1248H114.985ZM107.751 41.271L114.136 45.3357L118.774 38.0561C119.9 36.2878 119.371 33.9455 117.603 32.8202C116.753 32.2691 115.743 32.1084 114.756 32.315C113.768 32.5447 112.918 33.1188 112.39 33.9914L107.751 41.271Z" fill="#333333"/>
<path d="M100.31 72.0339L96.1847 62.9108L105.601 58.6533L109.726 67.7764C110.899 70.3711 109.741 73.44 107.147 74.6132C104.552 75.7864 101.483 74.6286 100.31 72.0339Z" fill="#7BB7C2"/>
<path d="M107.706 75.8542C104.423 77.3468 100.542 75.8542 99.0489 72.5933L94.3643 62.2135L106.283 56.8169L110.967 67.1967C112.46 70.4806 110.967 74.3615 107.706 75.8542ZM97.9926 63.5913L101.552 71.468C102.425 73.374 104.652 74.2237 106.558 73.3511C108.464 72.4784 109.314 70.2509 108.441 68.3449L104.882 60.4682L97.9696 63.5913H97.9926Z" fill="#333333"/>
<path d="M86.8864 78.0932L82.7614 68.9701L92.1775 64.7126L96.3025 73.8358C97.4757 76.4304 96.3178 79.4994 93.7232 80.6725C91.1285 81.8457 88.0596 80.6879 86.8864 78.0932Z" fill="#7BB7C2"/>
<path d="M94.2948 81.9396C91.0109 83.4323 87.13 81.9396 85.6373 78.6787L80.9526 68.2989L92.871 62.9023L97.5557 73.2821C99.0484 76.566 97.5557 80.4469 94.2948 81.9396ZM84.581 69.6538L88.1404 77.5305C89.013 79.4365 91.2406 80.2862 93.1466 79.4136C95.0526 78.5409 95.9023 76.3134 95.0296 74.4074L91.4702 66.5307L84.558 69.6538H84.581Z" fill="#333333"/>
<path d="M75.7868 36.012L62.261 71.5145C59.8727 77.7837 66.2797 83.8233 72.3882 81.0447L121.508 58.8383C127.64 56.0597 127.341 47.2874 121.049 44.9221L85.4547 31.6258C81.5738 30.1791 77.2565 32.131 75.7868 35.989V36.012Z" fill="#A9DEE2"/>
<path d="M122.059 60.0783L72.939 82.2847C69.5863 83.8003 65.8431 83.1803 63.1793 80.6542C60.4925 78.1282 59.6428 74.4309 60.9517 71.0093L74.4776 35.5067C76.2229 30.9598 81.3439 28.6404 85.9138 30.3398L121.508 43.636C124.953 44.922 127.157 47.9992 127.295 51.6735C127.41 55.3477 125.412 58.5627 122.059 60.0783ZM80.2876 33.0955C78.8638 33.7385 77.6696 34.9326 77.0726 36.4942L63.5467 71.9967C62.4674 74.8443 63.6386 77.3014 65.0853 78.6563C66.532 80.0112 69.0581 81.0216 71.8367 79.7816L120.957 57.5753C123.713 56.3352 124.631 53.7632 124.562 51.7653C124.494 49.7674 123.414 47.2644 120.567 46.208L84.9722 32.9118C83.3877 32.3147 81.7113 32.4295 80.2876 33.0725V33.0955Z" fill="#333333"/>
<path d="M97.372 52.2469C97.1882 52.3387 96.9816 52.3617 96.7749 52.3388C96.1319 52.2699 95.6956 51.6957 95.7645 51.0757C96.2467 46.6207 101.551 45.105 101.758 45.0591C102.378 44.8984 102.998 45.2428 103.159 45.8629C103.32 46.4599 102.998 47.1029 102.355 47.2866C102.309 47.2866 98.3365 48.4578 98.0379 51.3513C97.992 51.7646 97.7164 52.1091 97.372 52.2699V52.2469Z" fill="#333333"/>
<path d="M83.3874 58.5626C83.02 58.7234 82.6066 58.7004 82.2622 58.4478C79.8739 56.7714 76.3834 58.999 76.3604 59.0219C75.8093 59.3664 75.1203 59.2056 74.7759 58.6775C74.4314 58.1493 74.5692 57.4374 75.0974 57.0929C75.2811 56.9552 79.9198 53.9928 83.5711 56.5648C84.0993 56.9322 84.2141 57.6441 83.8467 58.1722C83.7319 58.356 83.5711 58.4708 83.3874 58.5626Z" fill="#333333"/>
<path d="M87.5664 60.7438C88.6457 63.132 91.4703 64.2114 93.8586 63.1091C96.2469 62.0068 97.3262 59.2052 96.2239 56.8169L91.8837 58.7689L87.5435 60.7208L87.5664 60.7438Z" fill="#FB7A8E"/>
<path d="M208.473 185.003C251.81 185.003 286.942 149.872 286.942 106.535C286.942 63.1981 251.81 28.0665 208.473 28.0665C165.136 28.0665 130.005 63.1981 130.005 106.535C130.005 149.872 165.136 185.003 208.473 185.003Z" fill="#F9A0B1"/>
<path d="M208.473 186.381C164.451 186.381 128.626 150.557 128.626 106.535C128.626 62.5129 164.451 26.6888 208.473 26.6888C252.495 26.6888 288.319 62.5129 288.319 106.535C288.319 150.557 252.495 186.381 208.473 186.381ZM208.473 29.4675C165.966 29.4675 131.382 64.0515 131.382 106.558C131.382 149.065 165.966 183.649 208.473 183.649C250.979 183.649 285.563 149.065 285.563 106.558C285.563 64.0515 250.979 29.4675 208.473 29.4675Z" fill="#333333"/>
<path d="M164.336 134.023C167.696 134.023 170.421 131.298 170.421 127.938C170.421 124.577 167.696 121.852 164.336 121.852C160.975 121.852 158.25 124.577 158.25 127.938C158.25 131.298 160.975 134.023 164.336 134.023Z" fill="#FB7A8E"/>
<path d="M208.381 134.023C211.742 134.023 214.466 131.298 214.466 127.938C214.466 124.577 211.742 121.852 208.381 121.852C205.02 121.852 202.295 124.577 202.295 127.938C202.295 131.298 205.02 134.023 208.381 134.023Z" fill="#FB7A8E"/>
<path d="M176.92 116.157C177.471 116.616 177.815 117.052 177.884 117.144C178.389 117.787 178.274 118.706 177.631 119.211C176.988 119.716 176.07 119.579 175.565 118.958C175.266 118.591 174.256 117.604 173.176 117.604C172.442 117.604 171.684 118.04 170.926 118.958C170.398 119.579 169.479 119.67 168.836 119.142C168.216 118.614 168.124 117.673 168.653 117.052C170.03 115.422 171.569 114.618 173.245 114.664C174.83 114.687 176.116 115.468 176.92 116.157Z" fill="#333333"/>
<path d="M203.328 116.157C203.879 116.616 204.224 117.052 204.293 117.144C204.798 117.787 204.683 118.706 204.04 119.211C203.397 119.716 202.479 119.579 201.973 118.958C201.675 118.591 200.664 117.604 199.585 117.604C198.85 117.604 198.092 118.04 197.335 118.958C196.806 119.579 195.888 119.67 195.245 119.142C194.625 118.614 194.533 117.673 195.061 117.052C196.439 115.422 197.978 114.618 199.654 114.664C201.239 114.687 202.525 115.468 203.328 116.157Z" fill="#333333"/>
<path d="M123.276 183.051C132.025 163.853 123.575 141.234 104.422 132.484L32.3839 99.5998C28.8704 97.9923 24.6909 99.5539 23.0834 103.067L-2.79716 159.743C-2.86605 159.927 -2.86605 160.11 -2.91198 160.294C-3.00383 160.455 -3.16458 160.57 -3.23348 160.753L-29.1141 217.429C-30.7215 220.942 -29.16 225.122 -25.6465 226.729L46.392 259.614C65.5671 268.363 88.1868 259.912 96.9361 240.76C102.425 228.727 101.139 215.362 94.7086 204.89C106.834 202.893 117.765 195.108 123.253 183.097L123.276 183.051Z" fill="#A9B5FF"/>
<path d="M45.8174 260.831L-26.2211 227.946C-30.4235 226.017 -32.2836 221.034 -30.3776 216.831L-4.49701 160.156C-4.40515 159.949 -4.29033 159.788 -4.19848 159.674C-4.19848 159.536 -4.12959 159.352 -4.03773 159.145L21.8429 102.47C23.7718 98.2674 28.7551 96.4073 32.9575 98.3133L104.996 131.198C124.814 140.246 133.586 163.738 124.538 183.556C119.349 194.969 109.107 203.168 96.9126 205.808C102.906 216.739 103.411 229.829 98.2216 241.242C89.1508 261.106 65.6584 269.855 45.8404 260.808L45.8174 260.831ZM31.8093 100.839C28.9847 99.5534 25.6319 100.793 24.346 103.618L-1.53464 160.294C-1.53464 160.294 -1.53463 160.569 -1.62649 160.73C-1.8102 161.097 -1.92503 161.235 -2.03985 161.373L-27.8745 217.956C-29.1605 220.781 -27.9204 224.134 -25.0958 225.42L46.9427 258.305C65.3829 266.732 87.2447 258.557 95.6726 240.117C100.771 228.933 99.9669 216.005 93.5369 205.533L92.4576 203.788L94.4784 203.443C106.604 201.445 116.891 193.592 121.989 182.431C130.417 163.945 122.242 142.106 103.802 133.678L31.7634 100.793L31.8093 100.839Z" fill="#333333"/>
<path d="M48.5961 159.88C48.9512 159.88 49.2391 159.592 49.2391 159.237C49.2391 158.882 48.9512 158.594 48.5961 158.594C48.241 158.594 47.9531 158.882 47.9531 159.237C47.9531 159.592 48.241 159.88 48.5961 159.88Z" fill="#7B87DB"/>
<path d="M44.9687 162.2C45.3238 162.2 45.6117 161.912 45.6117 161.557C45.6117 161.201 45.3238 160.914 44.9687 160.914C44.6136 160.914 44.3257 161.201 44.3257 161.557C44.3257 161.912 44.6136 162.2 44.9687 162.2Z" fill="#7B87DB"/>
<path d="M49.2162 164.128C49.5714 164.128 49.8592 163.84 49.8592 163.485C49.8592 163.13 49.5714 162.842 49.2162 162.842C48.8611 162.842 48.5732 163.13 48.5732 163.485C48.5732 163.84 48.8611 164.128 49.2162 164.128Z" fill="#7B87DB"/>
<path d="M94.2265 180.732C94.5816 180.732 94.8695 180.444 94.8695 180.089C94.8695 179.734 94.5816 179.446 94.2265 179.446C93.8714 179.446 93.5835 179.734 93.5835 180.089C93.5835 180.444 93.8714 180.732 94.2265 180.732Z" fill="#7B87DB"/>
<path d="M90.621 183.028C90.9761 183.028 91.264 182.74 91.264 182.385C91.264 182.03 90.9761 181.742 90.621 181.742C90.2659 181.742 89.978 182.03 89.978 182.385C89.978 182.74 90.2659 183.028 90.621 183.028Z" fill="#7B87DB"/>
<path d="M94.8461 184.957C95.2012 184.957 95.4891 184.669 95.4891 184.314C95.4891 183.959 95.2012 183.671 94.8461 183.671C94.491 183.671 94.2031 183.959 94.2031 184.314C94.2031 184.669 94.491 184.957 94.8461 184.957Z" fill="#7B87DB"/>
<path d="M67.5647 180.18C67.5647 180.18 67.4958 180.134 67.4499 180.134C62.6045 177.861 60.7444 172.671 60.6755 172.441C60.4688 171.844 60.7903 171.178 61.3874 170.972C61.9844 170.765 62.6504 171.086 62.8571 171.684C62.8571 171.729 64.4875 176.207 68.4603 178.068H68.5292C70.8716 179.17 73.6273 179.124 76.7045 177.999C77.3015 177.769 77.9675 178.068 78.1742 178.665C78.3808 179.262 78.1053 179.928 77.5082 180.134C73.8569 181.489 70.5041 181.512 67.5877 180.18H67.5647Z" fill="#333333"/>
<path d="M58.1502 171.982C57.645 171.753 57.3005 171.5 57.2087 171.454C56.7035 171.087 56.5886 170.352 56.9561 169.847C57.3235 169.341 58.0583 169.249 58.5635 169.594C58.8621 169.801 59.8266 170.329 60.6303 170.122C61.1815 169.984 61.6637 169.479 62.0311 168.652C62.3067 168.078 62.9727 167.826 63.5468 168.078C64.1209 168.354 64.3735 169.02 64.1209 169.594C63.4319 171.087 62.4445 172.005 61.1815 172.35C59.9873 172.648 58.8621 172.35 58.1272 171.982H58.1502Z" fill="#333333"/>
<path d="M92.3665 169.364C92.6192 169.938 92.734 170.375 92.7569 170.49C92.8947 171.179 92.4814 171.844 91.7924 172.005C91.1035 172.143 90.4376 171.707 90.2768 171.041C90.185 170.65 89.7716 169.502 88.9449 169.089C88.3708 168.813 87.613 168.882 86.6944 169.272C86.0514 169.548 85.3166 169.272 85.018 168.63C84.7425 167.987 85.018 167.229 85.661 166.953C87.3144 166.218 88.8071 166.172 90.0931 166.815C91.3102 167.435 91.9991 168.515 92.3665 169.341V169.364Z" fill="#333333"/>
<path d="M66.5056 157.24C67.2326 155.648 66.8118 153.896 65.5657 153.327C64.3197 152.759 62.7204 153.588 61.9934 155.18C61.2665 156.772 61.6873 158.524 62.9334 159.093C64.1794 159.662 65.7787 158.832 66.5056 157.24Z" fill="#333333"/>
</g>
</g>
<defs>
<filter id="filter0_d_640_1342" x="0" y="0" width="268" height="268" filterUnits="userSpaceOnUse" color-interpolation-filters="sRGB">
<feFlood flood-opacity="0" result="BackgroundImageFix"/>
<feColorMatrix in="SourceAlpha" type="matrix" values="0 0 0 0 0 0 0 0 0 0 0 0 0 0 0 0 0 0 127 0" result="hardAlpha"/>
<feOffset/>
<feGaussianBlur stdDeviation="2"/>
<feComposite in2="hardAlpha" operator="out"/>
<feColorMatrix type="matrix" values="0 0 0 0 0 0 0 0 0 0 0 0 0 0 0 0 0 0 0.2 0"/>
<feBlend mode="normal" in2="BackgroundImageFix" result="effect1_dropShadow_640_1342"/>
<feBlend mode="normal" in="SourceGraphic" in2="effect1_dropShadow_640_1342" result="shape"/>
</filter>
</defs>
</svg>
