<svg width="56" height="56" viewBox="0 0 56 56" fill="none" xmlns="http://www.w3.org/2000/svg">
<g id="icon_vegan">
<g id="Group">
<path id="Vector" d="M47.9218 11.278L48.9428 22.0536C49.6043 29.0441 44.4488 35.2673 37.5699 35.942C30.8205 36.5997 24.7062 31.587 24.0567 24.728C23.9019 23.097 24.0649 21.451 24.5362 19.8839C25.0075 18.3169 25.778 16.8596 26.8036 15.5953C27.8292 14.3309 29.0899 13.2842 30.5136 12.515C31.9373 11.7458 33.4962 11.2692 35.1012 11.1123L46.4046 10.0065C46.5864 9.98871 46.7698 10.0075 46.9444 10.0617C47.1191 10.116 47.2815 10.2047 47.4224 10.3228C47.5633 10.4409 47.6799 10.586 47.7656 10.7499C47.8513 10.9138 47.9043 11.0932 47.9218 11.278Z" fill="#BEC8FF" stroke="#7B87DB" stroke-width="3.2" stroke-linecap="round" stroke-linejoin="round"/>
<path id="Vector_2" d="M35 24.0875C29.2367 30.2022 23.471 45.2113 23.471 45.2113C23.471 45.2113 15.2343 24.0875 7 19.2113" stroke="#7B87DB" stroke-width="3.2" stroke-linecap="round" stroke-linejoin="round"/>
</g>
</g>
</svg>
