<svg width="103" height="128" viewBox="0 0 103 128" fill="none" xmlns="http://www.w3.org/2000/svg">
<g id="Frame 151">
<g id="Group">
<g id="Group_2">
<path id="Vector" d="M26.9692 122.707V111.007H42.8826V122.707C42.8826 125.01 41.0028 126.886 38.6948 126.886H31.1569C28.849 126.886 26.9692 125.01 26.9692 122.707Z" fill="#B1B1B1"/>
<path id="Vector_2" d="M38.6948 128H31.1568C28.2347 128 25.8524 125.623 25.8524 122.707V109.892H43.9993V122.707C43.9993 125.623 41.6169 128 38.6948 128ZM28.0858 112.121V122.707C28.0858 124.397 29.4631 125.771 31.1568 125.771H38.6948C40.3885 125.771 41.7658 124.397 41.7658 122.707V112.121H28.0858Z" fill="#909090"/>
</g>
<g id="Group_3">
<path id="Vector_3" d="M47.2378 122.707V111.007H63.1513V122.707C63.1513 125.01 61.2714 126.886 58.9635 126.886H51.4256C49.1177 126.886 47.2378 125.01 47.2378 122.707Z" fill="#B1B1B1"/>
<path id="Vector_4" d="M58.9635 128H51.4256C48.5035 128 46.1211 125.623 46.1211 122.707V109.892H64.268V122.707C64.268 125.623 61.8857 128 58.9635 128ZM48.3546 112.121V122.707C48.3546 124.397 49.7319 125.771 51.4256 125.771H58.9635C60.6572 125.771 62.0346 124.397 62.0346 122.707V112.121H48.3546Z" fill="#909090"/>
</g>
<g id="Group_4">
<path id="Vector_5" d="M101.902 31.9628C101.902 14.8949 88.0544 1.07715 70.987 1.07715H6.79346C3.64799 1.07715 1.11673 3.62155 1.11673 6.74169V57.1282C1.11673 57.2768 1.19118 57.4068 1.20979 57.574C1.20979 57.7225 1.11673 57.8526 1.11673 58.0197V108.406C1.11673 111.545 3.6666 114.071 6.79346 114.071H70.9684C88.0358 114.071 101.883 100.253 101.883 83.2223C101.883 72.5247 96.4485 63.1085 88.1847 57.574C96.4485 52.0394 101.883 42.6233 101.883 31.9442L101.902 31.9628Z" fill="#E6E6E6"/>
<path id="Vector_6" d="M70.987 115.204H6.79346C3.0524 115.204 0 112.158 0 108.425V58.0383C0 57.8526 0.0372244 57.704 0.0558366 57.5926C0.0186122 57.4812 0 57.3326 0 57.1654V6.77887C0 3.04585 3.0524 0 6.79346 0H70.9684C88.6314 0 103 14.3378 103 31.9629C103 42.1219 98.2167 51.5752 90.1203 57.6112C98.2167 63.6471 103 73.1004 103 83.2409C103 100.885 88.6314 115.241 70.9684 115.241L70.987 115.204ZM6.79346 2.2101C4.28081 2.2101 2.23347 4.25305 2.23347 6.7603V57.1469C2.23347 57.1469 2.30791 57.3511 2.32653 57.4997C2.32653 57.834 2.2893 57.964 2.25208 58.1126V108.425C2.25208 110.932 4.29942 112.975 6.81207 112.975H70.987C87.4216 112.975 100.785 99.6402 100.785 83.2409C100.785 73.2861 95.8529 64.0557 87.5705 58.5212L86.1932 57.5926L87.5705 56.664C95.8343 51.1294 100.785 41.8805 100.785 31.9629C100.785 15.545 87.4216 2.19152 70.987 2.19152H6.79346V2.2101Z" fill="#909090"/>
</g>
<path id="Vector_7" d="M45.6623 34.9531C46.7724 34.9531 47.6724 33.8056 47.6724 32.3901C47.6724 30.9746 46.7724 29.8271 45.6623 29.8271C44.5521 29.8271 43.6521 30.9746 43.6521 32.3901C43.6521 33.8056 44.5521 34.9531 45.6623 34.9531Z" fill="#909090"/>
<path id="Vector_8" d="M38.8246 40.041C39.1122 40.041 39.3453 39.8083 39.3453 39.5213C39.3453 39.2344 39.1122 39.0017 38.8246 39.0017C38.5371 39.0017 38.304 39.2344 38.304 39.5213C38.304 39.8083 38.5371 40.041 38.8246 40.041Z" fill="#B1B1B1"/>
<path id="Vector_9" d="M36.9261 42.957C37.2137 42.957 37.4468 42.7243 37.4468 42.4374C37.4468 42.1504 37.2137 41.9177 36.9261 41.9177C36.6386 41.9177 36.4055 42.1504 36.4055 42.4374C36.4055 42.7243 36.6386 42.957 36.9261 42.957Z" fill="#B1B1B1"/>
<path id="Vector_10" d="M40.7044 42.957C40.9919 42.957 41.225 42.7243 41.225 42.4374C41.225 42.1504 40.9919 41.9177 40.7044 41.9177C40.4169 41.9177 40.1838 42.1504 40.1838 42.4374C40.1838 42.7243 40.4169 42.957 40.7044 42.957Z" fill="#B1B1B1"/>
<path id="Vector_11" d="M79.4923 40.041C79.7798 40.041 80.0129 39.8083 80.0129 39.5213C80.0129 39.2344 79.7798 39.0017 79.4923 39.0017C79.2047 39.0017 78.9716 39.2344 78.9716 39.5213C78.9716 39.8083 79.2047 40.041 79.4923 40.041Z" fill="#B1B1B1"/>
<path id="Vector_12" d="M77.5938 42.957C77.8814 42.957 78.1145 42.7243 78.1145 42.4374C78.1145 42.1504 77.8814 41.9177 77.5938 41.9177C77.3063 41.9177 77.0732 42.1504 77.0732 42.4374C77.0732 42.7243 77.3063 42.957 77.5938 42.957Z" fill="#B1B1B1"/>
<path id="Vector_13" d="M81.3721 42.957C81.6597 42.957 81.8928 42.7243 81.8928 42.4374C81.8928 42.1504 81.6597 41.9177 81.3721 41.9177C81.0846 41.9177 80.8515 42.1504 80.8515 42.4374C80.8515 42.7243 81.0846 42.957 81.3721 42.957Z" fill="#B1B1B1"/>
<path id="Vector_14" d="M72.3672 34.9531C73.4773 34.9531 74.3773 33.8056 74.3773 32.3901C74.3773 30.9746 73.4773 29.8271 72.3672 29.8271C71.257 29.8271 70.3571 30.9746 70.3571 32.3901C70.3571 33.8056 71.257 34.9531 72.3672 34.9531Z" fill="#909090"/>
<path id="Vector_15" d="M71.1153 23.0505C71.4317 23.0505 71.7481 23.2176 71.9156 23.5148C73.1254 25.5392 76.4384 25.0749 76.4756 25.0563C76.9968 24.982 77.4621 25.3349 77.5365 25.8363C77.611 26.3378 77.2759 26.8207 76.7548 26.895C76.5687 26.9321 72.1576 27.5821 70.315 24.4434C70.0544 23.9977 70.2033 23.4405 70.65 23.1805C70.7989 23.0876 70.9664 23.0505 71.1153 23.0505Z" fill="#909090"/>
<path id="Vector_16" d="M47.0024 23.0505C46.686 23.0505 46.3696 23.2176 46.2021 23.5148C44.9923 25.5392 41.6793 25.0749 41.6421 25.0563C41.1209 24.982 40.6556 25.3349 40.5812 25.8363C40.5067 26.3378 40.8417 26.8207 41.3629 26.895C41.549 26.9321 45.9601 27.5821 47.8027 24.4434C48.0633 23.9977 47.9144 23.4405 47.4677 23.1805C47.3188 23.0876 47.1513 23.0505 47.0024 23.0505Z" fill="#909090"/>
</g>
</g>
</svg>
