<svg width="20" height="20" viewBox="0 0 20 20" fill="none" xmlns="http://www.w3.org/2000/svg">
<g id="Group 1000002645">
<path id="P" d="M7 14.8003V6.19972C7 5.52975 7.49097 5 8.11191 5H11.13C13.5415 5 15 6.54249 15 8.77054V8.8017C15 11.3258 13.1805 12.6346 10.9134 12.6346H9.22383V14.8003C9.22383 15.4703 8.73285 16 8.11191 16C7.49097 16 7 15.4703 7 14.8003ZM9.22383 10.5H10.9856C12.0975 10.5 12.7473 9.78329 12.7473 8.84844V8.81728C12.7473 7.74221 12.0542 7.16572 10.9422 7.16572H9.22383V10.5Z" fill="#7B87DB"/>
<circle id="Ellipse 1678" cx="10" cy="10" r="9.1" stroke="#7B87DB" stroke-width="1.8"/>
</g>
</svg>
