<svg width="56" height="56" viewBox="0 0 56 56" fill="none" xmlns="http://www.w3.org/2000/svg">
<g id="icon_bike">
<g id="Group">
<path id="Vector" d="M13.5 45C18.7467 45 23 40.7467 23 35.5C23 30.2533 18.7467 26 13.5 26C8.25329 26 4 30.2533 4 35.5C4 40.7467 8.25329 45 13.5 45Z" fill="#BEC8FF" stroke="#7B87DB" stroke-width="3.2" stroke-linecap="round" stroke-linejoin="round"/>
<path id="Vector_2" d="M41.5 45C46.7467 45 51 40.7467 51 35.5C51 30.2533 46.7467 26 41.5 26C36.2533 26 32 30.2533 32 35.5C32 40.7467 36.2533 45 41.5 45Z" fill="#BEC8FF" stroke="#7B87DB" stroke-width="3.2" stroke-linecap="round" stroke-linejoin="round"/>
<path id="Vector_3" d="M13.3335 35.3333L18.0002 19H35.5002M41.3335 35.3333L34.3335 12H43.6668" stroke="#7B87DB" stroke-width="3.2" stroke-linecap="round" stroke-linejoin="round"/>
<path id="Line 1054" d="M13 14L23 14" stroke="#7B87DB" stroke-width="3.2" stroke-linecap="round"/>
</g>
</g>
</svg>
